<svg width="208" height="78" viewBox="0 0 208 78" fill="none" xmlns="http://www.w3.org/2000/svg">
<g filter="url(#filter0_d)">
<path d="M9.2217 31.6361L9.43629 32.1368C9.15017 31.7076 8.86405 31.2784 8.64945 30.8493C10.0801 33.782 11.6537 36.5717 13.3705 39.2899L14.0143 40.3628L14.3719 40.8636L14.515 41.1497C14.658 41.3643 14.8726 41.5073 15.0157 41.7219C15.2303 42.0081 15.5164 42.2226 15.8025 42.3657C15.8741 42.5088 16.0171 42.6518 16.1602 42.7234C16.2317 42.7234 16.3032 42.6518 16.3032 42.4372C16.3032 42.2226 16.3032 42.0081 16.2317 41.7935C16.2317 41.6504 16.1602 41.4358 16.0887 41.2927C16.0887 41.2212 16.0887 41.1497 16.0171 41.0066C16.0171 40.7205 16.0171 40.5059 16.0171 40.2198V40.1483L15.9456 40.0052L15.8025 39.7191L14.658 37.4301L15.5164 39.2899C15.0872 38.4315 14.5865 37.5016 14.0143 36.5717L14.0858 36.9294C12.5121 33.782 10.0801 29.7048 8.43486 27.845C6.78966 25.9852 6.93272 27.0581 8.50639 30.2055L9.2217 31.6361Z" fill="white"/>
<path d="M11.4392 37.8593C10.5093 35.9995 9.5794 34.2112 8.72103 32.4229L8.57797 31.9937L8.36338 32.2799C9.50787 33.782 11.2246 36.3571 12.7268 38.7892L13.299 39.6475C13.4421 39.9337 13.6567 40.1482 13.9428 40.3628C14.2289 40.5059 13.8712 39.6475 13.2275 38.503L12.4406 37.144C10.7954 33.8535 7.79113 28.7749 6.21746 27.2727C5.8598 26.9151 5.93133 27.3442 5.8598 27.5588C5.57368 27.5588 6.14593 28.8464 7.07583 30.4916C8.00573 32.0653 9.00716 33.3528 9.22175 33.3528L9.65093 34.2112L9.22175 33.639C9.65093 33.9966 10.5808 35.4272 11.2961 36.5002L12.2976 38.0739L12.226 36.9294L11.6538 36.1425C11.6538 36.2141 11.6538 36.2856 11.7253 36.3571C10.6524 34.7834 9.65093 33.3528 8.50644 31.6361L7.00429 29.4902C6.57511 28.9179 6.50358 29.061 6.7897 29.7763L7.29042 30.8493L7.07583 30.3485C8.29185 32.6375 9.72246 35.1411 10.9385 37.4301C11.0815 37.7877 11.2961 38.0739 11.5823 38.36C11.6538 38.4315 11.6538 38.2169 11.4392 37.8593Z" fill="white"/>
<path d="M6.64658 29.8478C6.43198 29.4186 6.21739 28.9895 5.93127 28.5603L5.78821 28.3457L6.14586 29.1325C6.36045 29.7048 6.57505 29.9194 6.64658 29.8478Z" fill="white"/>
<path d="M5.78833 28.3457L5.64526 28.0596L5.71679 28.2741L5.78833 28.3457Z" fill="white"/>
<path d="M57.0758 20.0481C60.0086 16.9008 63.2274 13.8965 66.7324 11.3214C70.2375 8.6032 74.0286 6.38575 78.0343 4.52595C78.1774 4.45442 78.392 4.38289 78.535 4.23983C78.535 4.23983 78.3204 4.23983 78.1058 4.38289C74.0286 6.17116 70.2375 8.46014 66.7324 11.1068C63.2274 13.7534 60.0801 16.6862 57.0758 19.8335C56.9327 19.9766 56.8612 20.1197 56.7181 20.2627C56.7181 20.3342 56.8612 20.1912 57.0758 20.0481Z" fill="white"/>
<path d="M115.659 5.95655C115.445 5.88502 115.445 5.95655 115.659 5.95655C115.874 6.09962 116.089 6.17115 116.303 6.24268C116.446 6.24268 116.446 6.24268 116.303 6.17115C116.089 6.09962 115.874 6.02808 115.659 5.95655Z" fill="white"/>
<path d="M113.227 7.74483C112.226 7.45871 111.225 7.24412 110.152 7.10105C110.009 7.10105 109.794 7.02952 109.651 6.95799C109.722 7.02952 109.508 7.02952 109.079 6.95799C105.144 6.24268 101.067 5.95656 97.0615 6.17115C92.9843 6.38575 88.9785 7.24412 85.1159 8.67473C85.0443 8.74626 84.9728 8.81779 84.8297 8.88932C83.9714 9.31851 83.113 9.74769 82.1831 10.0338L81.3963 10.3915C78.1059 11.8221 74.9585 13.5388 72.0257 15.6132C71.4535 16.1139 70.8097 16.6146 70.0944 17.1869C67.7339 19.2613 65.5164 21.5503 63.4421 23.9108C63.5851 23.7677 63.7282 23.6962 63.7282 23.7677C63.7282 23.9108 63.299 24.483 62.7267 25.1268L61.8684 26.1282C62.7267 25.1983 63.5851 24.2684 64.4435 23.4101C64.5865 23.267 64.7296 23.1955 64.8011 23.0524C65.731 22.1225 66.7325 21.1211 67.8054 20.1912C72.3119 16.1139 77.176 12.752 82.3977 10.3915C87.5479 8.03095 93.1273 6.7434 98.8498 6.52881C99.0644 6.52881 99.279 6.52881 99.4935 6.52881C99.5651 6.52881 99.5651 6.60034 99.3505 6.60034C95.917 6.81493 92.5551 7.45871 89.3362 8.53167C85.9027 9.67616 82.6838 11.1068 79.5365 12.895C75.4592 15.2556 71.7396 18.1168 68.4492 21.4072C65.0157 24.7691 61.9399 28.4887 59.2217 32.4229C58.578 33.2813 58.0057 34.2112 57.3619 35.0696L56.9328 35.7133L56.5036 36.3571L56.0744 37.0724C55.5021 37.9308 54.9299 38.8607 54.4292 39.7906C53.9285 40.7205 53.3562 41.7219 52.8555 42.7234L51.3534 45.8707L48.2775 52.3085L47.9914 51.9508L47.8483 51.8078C47.7768 51.7362 47.7768 51.6647 47.7053 51.5932L47.133 50.7348L45.917 49.0181L43.485 45.5131L38.5494 38.36L37.3333 36.5717L36.8326 35.8564L36.475 35.4272L35.1159 33.4959L34.4006 32.4945C34.186 32.2083 33.8283 31.7076 33.8999 31.8507L33.8283 31.6361C33.7568 31.5646 33.6137 31.493 33.5422 31.4215C33.5422 31.6361 33.4707 31.7792 33.4707 31.8507V31.9222L33.2561 32.3514L32.8269 33.3528L31.1102 37.3586L27.4621 45.9422L20.5951 62.0367C19.8083 63.968 18.9499 65.8993 18.1631 67.6876C16.0172 63.968 14.1574 60.5345 12.7268 57.8879C11.3677 55.2412 10.5093 53.3099 10.4378 52.5946C10.3662 52.0939 10.6524 52.1654 11.2246 52.8092C12.083 53.8106 12.8698 54.8121 13.5851 55.9566L12.4406 54.0252L10.6524 50.8779C9.86552 49.3757 9.07868 48.0166 8.43491 46.8006C8.14878 46.2284 7.86266 45.6561 7.64807 45.1554C7.57654 45.0123 7.57654 44.9408 7.50501 44.8693L7.43348 44.6547C7.36194 44.5116 7.36195 44.3686 7.29041 44.2255L6.7897 42.7949C6.21745 40.8636 4.9299 37.7877 4.57225 36.1425L4.9299 36.3571L4.78684 36.2141C4.28612 35.0696 4 34.2112 4 33.8536H4.28612C4.64378 33.9251 5.21602 34.3543 5.93133 35.0696C6.00286 34.998 6.14592 35.0696 6.36051 35.2126C6.14592 34.3543 6.14592 33.8535 6.71817 34.2827C6.50358 33.782 6.64664 33.8535 7.00429 34.2827C7.14735 34.4258 7.29041 34.6404 7.36194 34.9265C7.29041 34.6404 7.21888 34.5689 7.07582 34.2112L6.71817 33.4959L5.50215 31.2069C5.07296 30.277 4.85837 29.6332 4.85837 29.6332C4.64378 28.4172 4.64378 28.4172 4.9299 28.4887C5.00143 28.4887 5.00143 28.5603 5.07296 28.6318L4.50072 27.5588C4.42918 27.3443 4.35765 27.1297 4.35765 27.1297C4.57225 27.0581 4.57225 27.0581 4.50072 26.9151C4.50072 26.8435 4.50072 26.8435 4.50072 26.8435C4.85837 27.2012 4.85837 27.2012 4.85837 27.2012C4.9299 27.2727 5.07296 27.4158 5.07296 27.4158L5.64521 28.2026L6.07439 29.4186L6.28898 29.6332V29.9909V29.8478L6.57511 30.4201L6.28898 29.7048C7.07582 31.0639 7.07582 31.0639 7.36194 31.5646C7.64807 32.0653 8.00572 32.566 8.00572 32.6375C8.00572 32.566 8.00572 32.566 8.00572 32.566L9.5794 35.4272C9.65093 35.5703 9.65093 35.7134 9.72246 35.7849C9.86552 35.9995 10.0086 36.2141 10.1516 36.4287L10.5093 37.144L10.5808 37.287L10.9385 37.8593L11.01 38.0023L12.7983 40.5059L13.1559 41.1497L13.299 41.4358L13.3705 41.5789C13.3705 41.5789 13.3705 41.6504 13.4421 41.7219C13.4421 41.6504 13.4421 41.6504 13.3705 41.5789L13.299 41.3643C13.2275 41.0782 13.3705 41.2928 13.299 41.1497C11.7253 38.0739 9.86552 34.7119 8.00572 31.4215C8.00572 30.9923 7.7196 30.5631 7.64807 30.134C7.7196 30.0624 8.00572 30.4201 8.36338 30.9923C9.43634 32.566 10.5093 34.2112 11.5823 35.9279C12.1545 36.7863 12.6552 37.6447 13.2275 38.5746L14.0143 39.9337L14.7296 41.1497C15.4449 42.4372 16.0887 43.7248 16.6609 45.0839L16.7325 45.0123C17.0186 44.4401 17.3763 43.7963 17.6624 43.1525H17.5908L17.877 42.7234V42.6518C17.8054 42.7234 17.6624 42.7949 17.5908 42.8664L17.4478 43.081C17.1617 43.5817 16.9471 44.0824 16.5894 44.5832C16.1602 43.5817 15.8026 42.7234 15.4449 42.0081C15.3019 41.7219 15.2303 41.3643 15.0873 41.0782L15.0157 40.8636V40.792L14.9442 40.7205L14.7296 40.3628L13.9428 38.7892C13.6567 38.2885 13.5136 37.8593 13.5851 37.8593C13.8712 38.1454 14.0858 38.503 14.3004 38.8607L15.2303 40.4344L15.3019 40.649V40.7205L15.3734 40.8636C15.4449 41.0066 15.588 41.2212 15.6595 41.3643C15.8741 41.7935 16.0887 42.1511 16.2318 42.6518C16.5179 42.2942 16.8755 42.0081 17.2332 41.7935C17.3047 41.6504 17.3762 41.4358 17.5193 41.3643C17.5193 41.2927 17.5908 41.2212 17.6624 41.1497L17.7339 41.0782V41.0066V40.9351V40.8636L17.6624 40.9351H17.5908L17.5193 41.0066C17.5193 40.9351 17.5908 40.9351 17.5908 40.8636L17.877 40.3628C18.0916 40.0052 18.2346 39.6475 18.5207 39.2184L18.1631 39.5045C19.3076 37.0724 20.3805 34.5689 21.4535 32.0653C22.0257 30.8493 22.598 29.5617 23.0987 28.4172L24.3147 25.699L25.6023 22.8378L25.9599 21.9794C27.2475 18.546 28.6781 14.9694 30.3233 10.9637L29.1073 14.6118C29.8941 12.6804 30.6094 10.8207 31.3963 8.88932C32.1116 9.89075 32.8269 10.9637 33.5422 12.0367C36.1888 15.8993 38.907 20.1196 41.196 23.7677L42.0544 25.1268C42.3405 25.556 42.6266 26.0567 42.7697 26.2713C43.0558 26.772 43.3419 27.2727 43.5565 27.7019C44.0572 28.6318 44.4149 29.4186 44.701 30.0624L45.2017 30.8493L45.4878 31.2784L46.0601 32.1368L46.6323 32.9952L46.9184 33.4244L47.0615 33.639V33.7105C47.0615 33.7105 47.0615 33.7105 47.0615 33.639L47.133 33.4959C47.4192 32.9237 47.7053 32.4229 47.9914 31.9222C48.1345 31.6361 48.2775 31.4215 48.4206 31.1354L48.6352 30.7777L48.7782 30.5631L49.0644 30.134C50.9242 27.2727 52.927 24.5546 55.1445 21.9794C55.3591 21.6218 55.6452 21.4072 55.9313 21.1926C56.0029 21.1926 55.7883 21.5503 55.5021 21.9079C53.3562 24.5546 51.2818 27.3443 49.422 30.2055L49.279 30.5631L49.2074 30.6347V30.7062L49.1359 30.7777L48.8498 31.2784C48.7067 31.5646 48.4921 31.9222 48.3491 32.2083C47.9914 32.8521 47.6338 33.4959 47.3476 34.1397L47.2761 34.2827C47.2761 34.2827 47.2761 34.4258 47.2046 34.3543L46.99 34.2112L46.7039 33.782L46.99 34.2827L47.133 34.5689C47.133 34.6404 47.133 34.5689 47.2046 34.5689L47.2761 34.4973C47.8483 33.4959 48.4206 32.4945 49.2074 31.4215L50.0658 30.2055C50.4235 29.6332 50.8526 29.061 51.2818 28.4887C52.1402 27.3443 52.9986 26.1998 53.8569 25.0553C54.3576 24.4115 54.9299 23.6962 55.4306 23.0524C56.0029 22.4086 56.5036 21.7649 57.0758 21.1211C59.8655 17.9737 62.9413 15.1125 66.2318 12.4659C69.5937 9.74769 73.1702 7.45871 77.0329 5.45585C80.3233 3.81064 83.7568 2.52309 87.2618 1.59319C90.8383 0.663286 94.4864 0.16257 98.1345 0.0195084C103.356 -0.123553 108.578 0.520224 113.585 1.95084C118.521 3.30992 123.242 5.24125 127.748 7.6733C128.964 8.31708 130.037 9.03238 130.037 9.24698C130.109 9.46157 129.179 9.10391 127.963 8.46014C123.242 6.02809 118.163 4.02523 112.941 2.66615C107.648 1.23553 102.212 0.663286 96.7039 0.877878C91.196 1.164 85.7596 2.38002 80.6094 4.45442C75.4592 6.60034 70.5951 9.46157 66.3033 12.895C64.4435 14.3972 62.6552 15.9709 60.9385 17.6161H61.01C61.01 17.6161 61.01 17.9022 60.7239 18.1883C62.6552 16.3285 64.6581 14.5403 66.804 12.9666C69.7368 10.5345 72.8841 8.38861 76.2461 6.60034C84.4721 2.23696 93.9142 0.591755 103.142 1.95084C109.579 2.59462 115.874 4.23982 121.811 6.88646C122.026 6.95799 122.169 7.02952 122.383 7.17258C122.455 7.24411 122.312 7.17258 122.097 7.10105C117.877 5.38432 113.514 4.02523 109.007 3.16686C109.722 3.45299 110.08 3.59605 110.009 3.73911C109.937 3.88217 109.365 3.88217 108.506 3.73911C109.508 3.9537 110.509 4.16829 111.511 4.45442C112.154 4.59748 112.584 4.81207 112.584 4.8836C112.584 4.95513 112.083 4.8836 111.439 4.66901C107.362 3.52451 103.213 2.95227 98.9928 2.80921C93.9857 2.80921 88.907 3.59605 84.1144 5.16972C84.6152 5.09819 85.1159 5.02666 85.6166 5.09819C86.4034 4.8836 87.1187 4.66901 87.834 4.52594C91.2675 3.59605 94.844 3.09533 98.4206 3.09533C102.069 3.09533 105.645 3.45298 109.222 4.16829C116.303 5.67044 123.099 8.67473 129.322 12.3943C129.608 12.5374 129.751 12.6805 129.751 12.752C129.751 12.752 129.536 12.6805 129.322 12.5374C125.531 10.2484 121.597 8.31708 117.519 6.7434C117.662 6.81493 117.662 6.88646 117.519 6.81493C117.305 6.7434 117.09 6.67187 116.876 6.60034C116.661 6.52881 116.732 6.45728 116.876 6.52881C113.013 5.09819 109.079 4.09676 105.001 3.59605C100.996 3.09533 96.9184 3.09533 92.9127 3.66758C96.6323 3.23839 100.352 3.23839 104.072 3.66758C107.72 4.09676 111.368 4.95513 114.873 6.24268C115.659 6.45728 116.446 6.67187 117.162 6.95799C117.376 7.02952 117.519 7.10105 117.734 7.24412C117.734 7.24412 117.591 7.24411 117.376 7.17258L116.732 6.95799C118.02 7.45871 119.021 8.03095 118.878 8.10248C118.735 8.24554 117.591 7.88789 116.232 7.38718C112.655 6.09962 108.936 5.09819 105.073 4.52594C104.715 4.52594 104.286 4.45442 103.857 4.38289C103.428 4.31135 103.07 4.38288 102.641 4.31135C108.578 4.95513 114.3 6.67187 119.665 9.10391C119.951 9.17544 120.237 9.39004 120.452 9.60463C120.452 9.67616 120.094 9.5331 119.594 9.31851C114.801 7.31564 109.794 5.95656 104.644 5.31278C99.4936 4.66901 94.2718 4.8836 89.1931 5.95656C85.9027 6.88646 82.7554 8.24554 79.8226 9.89075L80.9671 9.39004C85.7596 7.24412 90.9099 5.95656 96.1316 5.52738C101.353 5.09819 106.647 5.59891 111.654 6.95799C111.797 6.95799 112.011 7.02952 112.154 7.17258C112.154 7.17258 112.011 7.17258 111.725 7.10105C109.222 6.45728 106.718 5.95656 104.072 5.74197C101.496 5.52738 98.9928 5.45585 96.4177 5.67044C92.269 5.95656 88.2632 6.81493 84.4006 8.38861C88.1917 7.10105 92.1259 6.24268 96.1316 6.02809C100.137 5.74197 104.215 6.02809 108.149 6.81493C108.435 6.88646 108.793 6.95799 109.079 7.02952C109.15 7.02952 109.222 7.02952 109.293 7.02952C110.295 7.17258 111.439 7.38718 112.512 7.74483C112.727 7.74483 112.87 7.88789 113.084 7.95942C113.585 7.81636 113.442 7.81636 113.227 7.74483ZM16.6609 49.0181L16.5894 48.8035L16.8755 49.3757L17.0186 49.8764C17.0186 49.8764 17.0901 49.8764 17.2332 49.8049L17.0186 49.948L16.6609 49.0181ZM11.1531 41.4358L11.01 40.8636L11.1531 41.4358ZM48.206 33.3528C47.9199 33.8536 47.6338 34.3543 47.4192 34.855L47.3476 34.998V35.0696L47.2046 34.7835L46.8469 34.2827L46.2031 33.2813C45.774 32.566 45.4163 31.9222 44.9871 31.2784L45.8455 32.4229L46.6323 33.7105L47.0615 34.4258L47.2761 34.7835L47.3476 34.855L47.4192 34.7119C47.5622 34.2827 47.8483 33.782 48.206 33.3528ZM14.2289 43.081C14.4435 43.7248 14.6581 44.3686 14.8727 45.0123C15.1588 45.37 15.3734 45.7992 15.6595 46.2284C16.0887 47.0152 16.5179 47.802 17.0186 48.5889L17.5193 47.4444C17.4478 47.4444 17.5193 47.1583 17.5908 47.0152L17.8054 46.586L17.0186 48.2312L16.0172 46.2999C15.3734 45.2269 14.7296 44.0824 14.2289 43.081ZM6.57511 30.8493L6.50358 30.6347L6.86123 30.9208L6.57511 30.8493ZM6.07439 30.3485L6.21745 30.6347C6.14592 30.5631 6.07439 30.4916 6.07439 30.3485ZM7.43348 32.9952C7.43348 32.8521 7.36195 32.7091 7.29041 32.6375L7.43348 32.9952ZM5.21602 36.7148L6.36051 37.3586L5.21602 36.5717V36.7148Z" fill="white"/>
<path d="M91.4821 32.1368L88.1917 20.7634H90.9098L92.9127 28.5603L94.9155 20.7634H97.3476L94.1287 32.1368V37.7877H91.4821V32.1368Z" fill="white"/>
<path d="M97.8483 24.8407C97.8483 22.1225 99.2074 20.5488 101.782 20.5488C104.358 20.5488 105.717 22.1225 105.717 24.8407V33.7105C105.717 36.4287 104.358 38.0023 101.782 38.0023C99.2074 38.0023 97.8483 36.4287 97.8483 33.7105V24.8407ZM100.423 33.8535C100.423 35.0696 100.924 35.4988 101.782 35.4988C102.641 35.4988 103.142 35.0696 103.142 33.8535V24.6976C103.142 23.4816 102.641 23.0524 101.782 23.0524C100.924 23.0524 100.423 23.4816 100.423 24.6976V33.8535Z" fill="white"/>
<path d="M109.865 20.7634V33.8536C109.865 35.0696 110.366 35.4988 111.224 35.4988C112.083 35.4988 112.584 35.0696 112.584 33.8536V20.7634H115.016V33.7105C115.016 36.4287 113.728 38.0023 111.153 38.0023C108.578 38.0023 107.29 36.4287 107.29 33.7105V20.7634H109.865Z" fill="white"/>
<path d="M119.022 25.4845V37.7877H116.733V20.7634H119.951L122.598 30.9208V20.7634H124.959V37.7877H122.24L119.022 25.4845Z" fill="white"/>
<path d="M130.681 28.2742H134.329V33.7105C134.329 36.4287 133.041 38.0023 130.466 38.0023C127.891 38.0023 126.604 36.4287 126.604 33.7105V24.8407C126.604 22.1225 127.891 20.5488 130.466 20.5488C133.041 20.5488 134.329 22.1225 134.329 24.8407V26.4859H131.897V24.6261C131.897 23.4101 131.396 22.9809 130.538 22.9809C129.679 22.9809 129.179 23.4101 129.179 24.6261V33.8535C129.179 35.0696 129.679 35.4988 130.538 35.4988C131.396 35.4988 131.897 35.0696 131.897 33.8535V30.7062H130.681V28.2742Z" fill="white"/>
<path d="M75.5307 45.9423L74.887 52.5231H72.3118L71.0243 40.2913H72.8126L73.814 49.8764L74.6724 40.2913H76.4606L77.3905 49.948L78.392 40.2913H79.9656L78.6781 52.5231H76.246L75.5307 45.9423Z" fill="white"/>
<path d="M82.7553 45.4415H85.3304V47.1583H82.7553V50.7348H85.9742V52.5231H80.967V40.2913H85.9742V42.0081H82.7553V45.4415Z" fill="white"/>
<path d="M92.6981 43.081V43.5102C92.6981 44.7262 92.3404 45.5846 91.482 45.9422C92.4835 46.2999 92.8411 47.3013 92.8411 48.5889V49.5903C92.8411 51.5216 91.9112 52.4515 90.0514 52.4515H87.1187V40.2198H89.9084C91.8397 40.2913 92.6981 41.2212 92.6981 43.081ZM88.9785 42.0081V45.2269H89.6938C90.4091 45.2269 90.8383 44.8693 90.8383 43.9394V43.2241C90.8383 42.3657 90.5521 42.0081 89.9084 42.0081H88.9785ZM88.9785 47.0152V50.8063H90.0514C90.6952 50.8063 90.9813 50.5202 90.9813 49.5903V48.5174C90.9813 47.3729 90.6237 47.0152 89.7653 47.0152H88.9785Z" fill="white"/>
<path d="M97.9199 48.9465L99.1359 40.2913H101.783V52.5231H99.9943V43.7248L98.7068 52.5231H96.99L95.6309 43.8679V52.5231H93.9857V40.2913H96.5608L97.9199 48.9465Z" fill="white"/>
<path d="M109.15 52.5231H107.29L106.933 50.3056H104.644L104.286 52.5231H102.569L104.501 40.2913H107.219L109.15 52.5231ZM104.93 48.6604H106.718L105.86 42.5088L104.93 48.6604Z" fill="white"/>
<path d="M112.512 40.1483C114.301 40.1483 115.23 41.2927 115.23 43.2241V43.5817H113.442V43.081C113.442 42.2226 113.084 41.865 112.512 41.865C111.94 41.865 111.582 42.2226 111.582 43.081C111.582 45.5846 115.23 46.0853 115.23 49.5903C115.23 51.5216 114.3 52.6661 112.441 52.6661C110.581 52.6661 109.651 51.5216 109.651 49.5903V48.8035H111.368V49.6618C111.368 50.5202 111.725 50.8063 112.298 50.8063C112.87 50.8063 113.228 50.4487 113.228 49.6618C113.228 47.1583 109.579 46.6576 109.579 43.1525C109.723 41.2927 110.652 40.1483 112.512 40.1483Z" fill="white"/>
<path d="M115.731 40.2913H121.525V42.0081H119.594V52.5231H117.662V42.0081H115.731V40.2913Z" fill="white"/>
<path d="M124.172 45.4415H126.675V47.1583H124.172V50.7348H127.319V52.5231H122.312V40.2913H127.319V42.0081H124.172V45.4415Z" fill="white"/>
<path d="M132.398 52.5231C132.326 52.237 132.255 52.0224 132.255 51.0209V49.0896C132.255 47.9451 131.897 47.5159 131.039 47.5159H130.395V52.5231H128.535V40.2913H131.325C133.256 40.2913 134.043 41.2212 134.043 43.081V44.0109C134.043 45.2269 133.685 46.0853 132.827 46.5145C133.757 46.8722 134.043 47.8736 134.043 49.0896V51.0209C134.043 51.5216 134.043 52.0224 134.258 52.5231H132.398V52.5231ZM130.395 42.0081V45.7992H131.11C131.826 45.7992 132.255 45.4415 132.255 44.5116V43.2956C132.255 42.4372 131.969 42.0796 131.325 42.0796L130.395 42.0081Z" fill="white"/>
<path d="M111.582 62.895V64.5402C111.582 66.4716 110.652 67.6161 108.793 67.6161C106.933 67.6161 106.003 66.4716 106.003 64.5402V58.174C106.003 56.2427 106.933 55.0982 108.793 55.0982C110.652 55.0982 111.582 56.2427 111.582 58.174V59.3185H109.794V58.0309C109.794 57.1726 109.436 56.8149 108.864 56.8149C108.292 56.8149 107.934 57.1726 107.934 58.0309V64.6118C107.934 65.4702 108.292 65.7563 108.864 65.7563C109.436 65.7563 109.794 65.3986 109.794 64.6118V62.895H111.582Z" fill="white"/>
<path d="M118.735 67.473H116.875L116.518 65.2555H114.229L113.871 67.473H112.154L114.086 55.2412H116.804L118.735 67.473ZM114.515 63.6103H116.303L115.373 57.4587L114.515 63.6103Z" fill="white"/>
<path d="M123.528 63.8965L124.744 55.2412H127.319V67.473H125.602V58.6747L124.315 67.473H122.598L121.167 58.8178V67.473H119.594V55.2412H122.169L123.528 63.8965Z" fill="white"/>
<path d="M134.186 58.2455V59.8192C134.186 61.7505 133.256 62.8235 131.396 62.8235H130.538V67.4015H128.678V55.1697H131.396C133.328 55.2412 134.186 56.3142 134.186 58.2455ZM130.538 56.958V61.1068H131.396C131.969 61.1068 132.326 60.8206 132.326 59.9623V58.1025C132.326 57.2441 131.969 56.958 131.396 56.958H130.538V56.958Z" fill="white"/>
<path d="M154.143 38.4315C153.642 41.5073 152.999 45.6561 152.712 47.5875C152.355 49.5188 151.997 51.8793 151.783 52.9523C151.64 54.0252 151.425 55.3128 151.282 55.885C151.21 56.3857 150.996 57.3156 150.924 57.7448C150.853 58.2455 150.638 59.6046 150.567 60.6776C150.066 64.5402 149.708 65.6132 148.993 66.6146C148.778 66.9008 148.707 66.9008 148.635 66.6862C148.492 66.4716 148.421 66.4716 148.349 66.6146C148.135 66.9723 147.777 66.9008 147.777 66.6146C147.777 66.257 147.419 66.257 147.276 66.6146C147.062 66.9008 147.062 66.9008 146.99 66.6146C146.919 66.4 146.775 66.3285 146.561 66.4716C146.489 66.5431 145.416 66.6146 144.343 66.6146C142.412 66.6862 142.412 66.6862 142.126 66.257C141.911 65.8993 141.768 65.4701 141.768 64.8979C141.768 63.2527 142.341 58.2455 142.841 55.1697C143.843 49.948 144.558 45.2985 144.987 42.4372C145.273 40.8636 145.631 38.2169 146.06 36.5717C146.346 34.855 146.561 33.4959 146.561 33.4244C146.561 33.4244 146.418 33.5674 146.203 33.7105C145.631 34.2827 145.059 34.4973 144.987 34.2827C144.916 34.2112 144.701 34.1397 144.63 34.1397C144.415 34.1397 144.129 33.9966 143.986 33.782C143.843 33.639 143.771 33.5674 143.771 33.639C143.771 33.7105 143.628 33.7105 143.557 33.639C143.413 33.4959 142.841 33.2813 142.341 33.2813C141.196 32.9952 139.122 32.2799 138.979 32.0653C138.692 31.7076 139.05 31.35 141.268 28.9895C144.057 26.0567 148.278 21.1926 148.492 20.5488C148.993 19.2613 148.921 19.3328 149.851 19.4043C150.352 19.4759 151.067 19.6905 151.568 19.9051C151.997 20.1912 152.426 20.2627 152.498 20.1912C152.641 20.0481 152.856 20.1912 153.142 20.5488C153.571 20.9065 153.642 20.9065 153.714 20.6204C153.785 20.3342 153.929 20.3342 154.572 20.4773C155.001 20.5488 155.216 20.6919 155.216 20.835C155.216 21.1211 155.216 21.1211 155.431 20.9065C155.574 20.6204 155.645 20.6204 155.788 20.9065C156.432 21.6933 155.931 27.0581 154.143 38.4315ZM147.92 57.9594C147.92 57.8164 147.848 57.8879 147.848 58.174C147.848 58.4601 147.92 58.5317 147.92 58.4601C147.991 58.3171 147.991 58.0309 147.92 57.9594ZM150.28 45.2269C150.28 45.0839 150.137 45.0124 150.066 45.0839C149.923 45.1554 149.923 45.2985 149.994 45.37C150.137 45.5846 150.28 45.5846 150.28 45.2269Z" fill="white"/>
<path d="M183.685 34.9265C182.541 36.5717 181.539 38.0023 181.468 38.0739C181.325 38.0739 181.325 38.1454 181.325 38.2169C181.325 38.36 180.824 39.2899 180.109 40.2913C178.535 42.7234 178.32 43.0095 177.39 44.5832C176.532 46.0853 174.958 48.8035 174.958 48.875C174.958 48.9465 174.601 49.5903 174.1 50.4487C173.313 51.8793 173.099 52.3085 167.948 62.6804C165.087 68.546 164.229 69.9051 164.229 69.0467C164.229 68.9036 164.443 68.4744 164.586 68.1168C164.873 67.7591 165.016 67.473 165.016 67.4015C165.016 67.2584 165.302 66.7577 165.588 66.1855C165.874 65.5417 166.017 65.041 166.017 65.041C165.946 65.041 166.017 64.8979 166.16 64.7548C166.303 64.5403 166.589 64.0395 166.804 63.5388C167.019 63.0381 167.162 62.4659 167.233 62.3943C167.376 62.2513 167.448 62.1082 167.376 62.1082C167.233 62.1082 166.303 63.4673 166.303 63.6103C166.303 63.8965 165.159 65.9709 164.944 66.3285C164.73 66.5431 164.586 66.6862 164.73 66.6862C164.944 66.6862 164.229 68.2598 163.8 68.4744C163.585 68.689 163.514 68.6175 163.299 68.2598C163.156 67.9737 162.941 67.9022 162.87 67.9022C162.727 67.9022 162.584 67.7591 162.584 67.6161C162.584 67.4015 163.728 64.9694 164.229 64.1826C164.3 63.8965 164.515 63.5388 164.586 63.2527C164.73 62.9666 164.873 62.8235 164.944 62.8235C165.016 62.8235 165.087 62.752 165.087 62.5374C165.016 62.2513 165.874 60.463 167.019 58.3886C167.162 58.1025 167.448 57.4587 167.662 57.0295C168.592 55.0267 169.594 52.8807 169.808 52.8092C169.88 52.8092 169.951 52.6661 169.951 52.5231C169.951 52.237 171.096 49.948 171.668 49.2327C171.811 48.9465 172.026 48.732 172.026 48.5889C172.026 48.5174 172.026 48.4458 172.169 48.4458C172.312 48.4458 172.669 47.4444 172.812 47.0152C172.812 46.586 173.242 46.2999 173.742 46.2999C174.1 46.2284 174.1 46.2284 173.814 46.0138C173.456 45.7277 173.456 45.7277 175.888 41.5074C176.246 41.0782 176.604 40.3629 176.747 40.1483L177.104 39.6475L176.675 40.0052C176.461 40.2913 176.318 40.4344 176.318 40.5059C176.318 40.5775 176.246 40.7205 176.031 40.8636C175.888 41.0066 175.674 41.4358 175.388 41.9365C175.173 42.2942 174.958 42.7234 174.887 42.7234C174.744 42.7234 174.744 42.8664 174.744 43.081C174.744 43.2241 174.458 43.5102 174.243 43.7963C174.029 44.0825 173.885 44.2971 173.957 44.3686C173.957 44.4401 173.957 44.7262 173.742 44.8693C173.528 45.0124 173.385 45.1554 173.099 45.0839C172.741 45.0124 172.741 45.0124 172.812 45.4415C172.956 46.0853 172.812 46.586 172.526 46.443C172.383 46.443 172.312 46.443 172.383 46.5145C172.383 46.5145 172.312 46.8006 172.24 47.0152C172.097 47.3729 172.026 47.3729 171.883 47.1583C171.811 47.0152 171.74 47.0152 171.74 47.3013C171.74 47.5159 171.74 47.659 171.74 47.7305C171.74 47.8021 171.596 47.8736 171.453 47.8736C171.31 47.8736 171.167 47.8736 171.167 48.0166C171.167 48.1597 171.024 48.2312 170.81 48.2312C170.524 48.2312 170.452 48.3028 170.667 48.3028C170.881 48.3743 171.024 48.5889 171.024 48.732C171.167 49.0181 171.096 49.0181 170.881 48.875C170.738 48.732 170.595 48.732 170.452 49.2327C170.309 49.5903 170.166 49.8764 170.166 50.0195C170.166 50.0195 170.023 50.2341 169.88 50.3772C169.594 50.7348 169.594 51.0209 169.808 50.8779C169.88 50.8063 170.023 50.8779 170.023 51.0925C170.023 51.2355 169.88 51.3071 169.808 51.2355C169.737 51.2355 169.665 51.3071 169.665 51.4501C169.665 51.6647 169.594 51.7362 169.522 51.7362C169.379 51.7362 169.307 51.7362 169.307 51.8793C169.307 51.9508 169.164 52.0224 169.164 52.0224C168.807 51.9508 168.735 52.0224 169.021 52.3085C169.307 52.5946 169.236 52.8807 168.664 53.0953C168.449 53.1669 168.306 53.3099 168.306 53.3815C168.306 53.5245 168.378 53.5245 168.592 53.453C168.735 53.453 168.878 53.453 168.878 53.5245C168.807 53.7391 168.378 54.3829 168.235 54.3829C167.877 54.4544 167.877 54.4544 168.02 54.669C168.163 54.8836 168.163 55.0267 167.948 55.3843C167.805 55.6704 167.591 56.0996 167.591 56.3857C167.448 56.6719 167.233 56.8865 167.019 57.0295C166.732 57.1011 166.589 57.1726 166.589 57.2441C166.589 57.3156 166.732 57.2441 166.875 57.2441C167.019 57.1726 167.09 57.2441 167.09 57.3872C167.019 57.7448 166.589 58.6747 166.446 58.6747C166.375 58.6747 166.303 58.8893 166.232 59.1754C166.16 59.5331 166.089 59.6046 165.946 59.5331C165.731 59.247 165.731 59.247 165.588 59.5331C165.516 59.6046 165.445 59.8192 165.445 59.8908C165.445 59.9623 165.445 59.9623 165.516 59.8192C165.588 59.6762 165.659 59.6762 165.731 59.6762C165.874 59.7477 165.874 59.9623 165.731 60.0338C165.159 61.2498 164.873 61.679 164.73 61.6075C164.515 61.536 164.372 61.7505 164.3 61.9651C164.086 62.4659 164.086 62.6089 164.3 62.3943C164.372 62.3228 164.443 62.3943 164.372 62.4659C164.372 62.6089 164.3 62.6804 164.229 62.6804C163.943 62.6804 163.8 63.1096 163.871 63.3242C163.943 63.3958 163.871 63.6819 163.8 63.8965C163.657 64.2541 163.513 64.2541 163.156 64.2541C162.798 64.1111 162.798 64.1826 162.87 64.3972C162.941 64.7548 161.868 67.0438 161.654 67.0438C161.582 67.0438 161.511 66.9008 161.511 66.8292C161.511 66.6146 161.368 66.5431 161.296 66.5431C161.225 66.5431 161.081 66.4 161.081 66.257C161.081 65.8993 160.795 65.8993 160.724 66.257C160.652 66.5431 160.581 66.5431 160.366 66.1855C160.223 66.0424 160.152 65.9709 160.223 66.1855C160.295 66.4001 160.295 66.4 160.152 66.1139C160.008 65.9709 159.794 65.8278 159.794 65.8278C159.436 65.7563 158.578 65.041 158.578 64.9694C158.578 64.8264 158.435 64.8264 158.292 64.8264C158.077 64.8264 157.934 64.6833 157.934 64.6118C157.934 64.4687 157.934 64.3257 157.934 64.2541C157.934 64.1111 157.791 63.968 157.791 63.968C157.648 63.8249 157.72 63.5388 158.721 61.536C159.365 60.1053 159.722 59.4616 160.652 57.0295C161.01 56.3142 164.3 49.7334 164.944 48.3028C165.516 47.3013 166.661 45.0839 167.448 43.7248C167.805 43.081 168.378 42.1511 168.592 41.7219C168.878 41.2928 169.522 40.1483 169.951 39.3614C171.167 37.3586 171.167 37.4301 172.312 35.5703C172.812 34.7119 173.456 33.639 173.671 33.3528C173.957 32.9952 174.601 31.9222 175.245 30.9923C175.817 30.0624 176.318 29.3471 176.318 29.2756C176.246 29.2041 174.958 29.5617 173.456 29.9909C169.951 30.9923 162.369 32.9237 161.797 32.8521C161.582 32.8521 161.081 32.4945 160.366 31.7792C159.865 31.2069 159.15 30.6347 158.936 30.4201C158.006 29.7763 156.432 28.2742 156.289 27.988C156.146 27.7734 156.217 27.4873 156.289 27.2727C156.575 26.8435 157.29 26.5574 162.226 25.3414C165.731 24.483 168.378 23.6962 171.525 22.6948C177.39 20.7634 179.679 20.1912 181.325 20.0481L182.255 19.9766L184.043 21.6933C185.044 22.6948 185.831 23.5531 185.831 23.6247C185.831 23.6962 186.117 23.9108 186.332 24.0538C186.904 24.2684 187.691 25.1268 188.12 25.8421C188.549 27.1297 187.619 28.9895 183.685 34.9265ZM161.797 64.9694C161.797 64.8979 161.725 64.8264 161.654 64.8979C161.511 64.9694 161.511 65.1125 161.511 65.184C161.511 65.2556 161.511 65.3271 161.654 65.2556C161.725 65.184 161.797 65.041 161.797 64.9694ZM162.512 63.3242C162.441 63.1812 162.369 63.2527 162.369 63.5388C162.369 63.7534 162.441 63.8249 162.512 63.6819C162.655 63.5388 162.655 63.3958 162.512 63.3242ZM164.014 65.8993C163.8 65.8993 163.657 66.3285 163.728 66.6146C163.8 66.6862 163.657 66.8292 163.513 66.8292C163.227 66.9723 163.156 67.4015 163.442 67.4015C163.585 67.4015 163.657 67.33 163.513 67.2584C163.513 67.1869 163.585 66.9723 163.8 66.8292C164.157 66.3285 164.3 65.8993 164.014 65.8993ZM165.016 64.6118C165.016 64.3257 164.944 64.2541 164.873 64.2541C164.658 64.2541 164.586 64.7548 164.801 64.9694C165.016 65.041 165.016 65.041 165.016 64.6118ZM166.16 58.7463C166.089 58.6747 165.946 58.7463 165.946 58.9609C165.802 59.1754 165.802 59.247 166.017 59.0324C166.16 58.8893 166.232 58.7463 166.16 58.7463ZM166.661 57.6018C166.661 57.4587 166.661 57.4587 166.589 57.4587C166.518 57.4587 166.446 57.4587 166.375 57.6018C166.303 57.7448 166.375 57.8164 166.446 57.8164C166.661 57.8164 166.661 57.7448 166.661 57.6018ZM167.376 56.0281C167.233 56.0281 167.162 56.0281 167.233 56.0996C167.305 56.1712 167.305 56.3142 167.162 56.4573C167.09 56.6003 167.09 56.7434 167.09 56.7434C167.162 56.7434 167.233 56.6003 167.376 56.4573C167.519 56.3142 167.448 56.0996 167.376 56.0281ZM169.021 58.9609C168.735 59.1754 168.306 60.0338 168.235 60.5345C168.163 60.6776 168.091 60.8206 168.091 60.8922C167.734 61.1783 167.376 62.0367 167.519 62.0367C167.662 62.0367 167.805 61.8936 167.805 61.7506C167.805 61.679 167.877 61.3929 168.163 61.1068C168.378 60.8922 168.449 60.6776 168.378 60.6776C168.306 60.6776 168.306 60.5345 168.521 60.463C168.592 60.3199 168.735 60.1053 168.735 60.0338C168.735 59.9623 168.878 59.6046 169.093 59.3185C169.164 58.8893 169.164 58.7463 169.021 58.9609ZM168.091 49.3757C168.091 49.5903 168.091 49.6619 168.163 49.6619C168.235 49.4473 168.235 49.3757 168.091 49.3757C168.091 49.1611 168.091 49.1611 168.091 49.3757ZM168.378 51.8793C168.378 51.8078 168.306 51.7362 168.163 51.6647C168.02 51.5932 168.02 51.6647 168.02 51.7362C168.02 51.8793 168.02 51.9508 168.163 51.9508C168.306 51.9508 168.378 51.8793 168.378 51.8793ZM169.737 57.5302C169.594 57.6018 169.451 57.6733 169.451 57.8164C169.451 57.8879 169.307 58.174 169.164 58.3886C168.95 58.7463 169.021 58.7463 169.307 58.4601C169.451 58.2455 169.665 57.9594 169.665 57.8164C169.808 57.5302 169.808 57.4587 169.737 57.5302ZM169.665 49.3042C169.594 49.3042 169.451 49.3042 169.307 49.4473C169.164 49.6619 169.164 49.6619 169.451 49.5188C169.594 49.4473 169.737 49.3757 169.665 49.3042ZM170.023 54.3829C170.023 54.2398 169.88 54.1683 169.808 54.1683C169.594 54.1683 169.522 54.2398 169.522 54.3829C169.522 54.4544 169.594 54.5259 169.808 54.5259C169.88 54.4544 170.023 54.4544 170.023 54.3829ZM169.951 56.7434C169.951 56.6003 169.808 56.7434 169.808 56.958C169.737 57.2441 169.737 57.3156 169.808 57.2441C169.951 57.1011 170.023 56.8865 169.951 56.7434ZM174.744 47.5875C174.529 47.7305 174.386 47.9451 174.315 48.0882C174.315 48.5174 174.029 48.9465 173.957 48.8035C173.885 48.8035 173.814 48.8035 173.814 48.875C173.957 49.1611 173.599 49.8764 173.313 50.3056C173.099 50.5918 172.956 50.8779 172.956 51.0209C172.956 51.2355 172.812 51.3786 172.669 51.4501C172.526 51.5217 172.455 51.6647 172.455 51.7362C172.383 51.8078 172.169 52.1654 172.026 52.7377C171.811 53.1669 171.668 53.596 171.668 53.596C171.668 53.6676 171.382 53.9537 171.31 54.3829C171.024 54.7405 170.881 55.0982 170.81 55.2413C170.81 55.3843 170.738 55.6704 170.524 55.9566C170.237 56.4573 170.237 56.4573 170.595 56.2427C170.81 56.0281 170.953 55.742 171.096 55.3843C171.167 55.0982 171.239 54.8121 171.239 54.7405C171.167 54.669 171.31 54.5259 171.525 54.3829C171.74 54.2398 171.811 54.0968 171.74 54.0968C171.668 54.0968 171.74 53.8822 171.954 53.596C172.312 53.2384 172.741 52.237 172.598 52.237C172.598 52.237 172.884 51.8793 173.099 51.4501C173.385 51.0209 173.528 50.6633 173.456 50.6633C173.385 50.6633 173.456 50.5202 173.528 50.5202C173.599 50.4487 173.814 50.091 174.029 49.7334C174.172 49.3757 174.386 48.8035 174.601 48.5889C174.744 48.3028 174.958 47.9451 175.03 47.659C175.101 47.2298 175.03 47.2298 174.744 47.5875ZM170.524 52.38C170.524 52.5231 170.667 52.4516 170.881 52.1654C171.096 51.8793 171.096 51.8793 170.81 52.0939C170.667 52.237 170.524 52.38 170.524 52.38ZM172.097 50.3056C172.312 50.091 172.312 50.091 172.026 50.091C171.883 50.091 171.668 50.1626 171.668 50.3056C171.525 50.5202 171.74 50.5202 172.097 50.3056ZM172.598 44.0825C172.598 43.8679 172.312 43.7248 172.24 43.8679C172.026 43.9394 172.169 44.2255 172.455 44.2255C172.455 44.297 172.598 44.2255 172.598 44.0825ZM172.598 49.4473C172.598 49.4473 172.741 49.3042 172.741 49.1611C172.741 48.8035 172.455 48.732 172.455 49.0896C172.455 49.3042 172.455 49.4473 172.598 49.4473ZM172.884 44.7978C172.884 44.6547 172.813 44.5832 172.741 44.5832C172.598 44.5832 172.598 44.6547 172.598 44.7978C172.598 44.8693 172.598 44.9408 172.741 44.9408C172.813 44.9408 172.884 44.8693 172.884 44.7978ZM172.598 45.9423C172.598 45.7992 172.598 45.8707 172.598 45.9423C172.598 46.2284 172.598 46.2999 172.598 46.2999C172.669 46.1568 172.741 46.0138 172.598 45.9423ZM173.099 47.9451C173.099 48.5889 173.313 48.4458 173.385 47.7305C173.385 47.4444 173.313 47.3729 173.242 47.3729C173.17 47.4444 173.099 47.7305 173.099 47.9451ZM173.456 44.5116C173.313 44.6547 173.242 44.7978 173.313 44.7978C173.456 44.7978 173.599 44.7262 173.671 44.5832C173.885 44.3686 173.671 44.297 173.456 44.5116ZM176.174 45.2269C176.031 45.2269 175.388 46.443 175.388 46.586C175.388 46.6576 175.388 46.7291 175.245 46.7291C175.101 46.7291 175.101 46.8006 175.101 46.9437C175.101 47.0867 175.173 47.0867 175.388 46.9437C175.459 46.8006 175.531 46.6576 175.531 46.586C175.459 46.5145 175.531 46.2999 175.745 46.0853C176.103 45.4415 176.246 45.2269 176.174 45.2269ZM176.389 44.5832C176.103 44.9408 176.031 45.0124 176.246 44.9408C176.389 44.8693 176.604 44.6547 176.604 44.4401C176.961 43.9394 176.818 43.9394 176.389 44.5832ZM177.462 39.2184C177.677 38.8607 177.319 38.8607 177.104 39.2899C176.818 39.576 176.89 39.6475 177.104 39.6475C177.247 39.6475 177.39 39.576 177.39 39.576C177.462 39.433 177.462 39.2899 177.462 39.2184ZM178.249 41.9365C178.249 41.865 178.106 41.7935 178.034 41.7935C177.963 41.7935 177.891 41.865 177.963 41.9365C177.963 42.0081 177.82 42.2227 177.677 42.4372L177.462 42.7949L177.82 42.4372C178.106 42.1511 178.249 42.0081 178.249 41.9365ZM178.249 37.6447C178.106 37.7162 177.963 38.0023 177.82 38.2885C177.605 38.7892 177.605 38.7892 177.891 38.5031C178.034 38.2885 178.177 38.0739 178.249 37.8593C178.392 37.6447 178.392 37.5732 178.249 37.6447ZM179.679 39.3614C179.536 39.433 179.465 39.576 179.465 39.576C179.536 39.6475 179.393 39.9337 179.107 40.2198L178.75 40.8636L179.107 40.3629C179.393 40.0767 179.608 39.7906 179.751 39.576C179.894 39.2899 179.894 39.2899 179.679 39.3614ZM179.036 36.2856C179.107 36.4287 179.465 36.071 179.751 35.6418C179.894 35.3557 179.894 35.3557 179.393 35.7134C179.179 35.9279 179.036 36.2141 179.036 36.2856ZM180.18 38.7177C180.109 38.5746 179.966 38.5031 179.894 38.5031C179.751 38.5031 179.751 38.5746 179.823 38.7177C179.894 38.7892 180.037 38.9322 180.109 38.9322C180.18 38.9322 180.252 38.7892 180.18 38.7177ZM181.611 32.6375C181.468 32.7091 181.396 32.8521 181.396 32.9237C181.396 33.2098 181.539 33.1383 181.611 32.7806C181.754 32.6375 181.682 32.566 181.611 32.6375ZM182.255 32.0653C182.255 31.9222 182.183 31.8507 182.111 31.9222C181.968 31.9938 181.968 32.1368 181.968 32.2084C182.111 32.4945 182.255 32.4229 182.255 32.0653Z" fill="white"/>
<path d="M195.917 23.5531C195.917 23.5531 195.845 23.5531 195.774 23.5531C195.559 23.5531 195.345 23.5531 195.345 23.6247C195.273 23.6247 195.345 23.6962 195.559 23.6962C195.631 23.6962 195.774 23.6962 195.774 23.6962C195.774 23.6962 195.702 23.6962 195.631 23.7677C195.488 23.7677 194.486 23.9108 194.415 23.9108C194.415 23.9108 194.343 24.2684 194.272 24.6976C194.2 25.1268 194.129 25.8421 194.057 26.2713C193.986 26.7005 193.914 27.2012 193.914 27.4158C193.914 27.6304 193.771 28.4887 193.628 29.2756C193.557 30.0624 193.413 30.8493 193.342 30.9923C193.342 31.1354 193.27 31.493 193.199 31.7792C193.127 32.4229 193.056 32.7091 192.913 32.7806C192.913 32.8521 192.77 32.9236 192.77 32.8521C192.698 32.9236 192.627 32.9236 192.627 32.8521C192.627 32.8521 192.627 32.8521 192.555 32.8521C192.555 32.8521 192.484 32.8521 192.412 32.8521C192.269 32.8521 191.625 32.8521 191.625 32.7806C191.554 32.6375 191.554 32.4229 191.554 32.1368C191.625 31.7076 191.84 30.134 192.126 28.6318C192.197 28.2026 192.269 27.7019 192.269 27.7019C192.269 27.3443 192.77 24.6261 192.841 24.2684C192.841 24.1969 192.841 24.1969 192.77 24.1969C192.627 24.1969 191.411 24.4115 190.838 24.5546C190.481 24.6261 190.195 24.6261 190.123 24.6261C190.052 24.6261 190.052 24.6261 190.123 24.5546C190.052 24.5546 190.052 24.5546 190.052 24.5546V24.483C189.98 24.483 189.98 24.483 189.98 24.4115C189.98 24.34 189.98 24.2684 189.908 24.2684C189.837 24.1969 189.622 23.6962 189.622 23.6247C189.622 23.5531 189.765 23.4816 189.98 23.4101C190.338 23.3385 191.983 23.0524 192.555 22.9809C192.627 22.9809 192.913 22.9093 193.199 22.9093C193.485 22.9093 193.843 22.8378 193.914 22.8378C193.986 22.8378 194.2 22.8378 194.343 22.7663C194.629 22.7663 195.345 22.6948 195.845 22.6232C196.132 22.6232 196.203 22.6232 196.203 22.6232H196.275C196.346 22.6232 196.418 22.7663 196.418 22.8378C196.418 22.8378 196.418 22.9093 196.418 23.0524C196.418 23.267 196.418 23.267 196.418 23.1955C196.346 23.1955 196.06 23.1955 196.06 23.1955C196.06 23.1955 196.06 23.267 195.917 23.267C195.846 23.267 195.774 23.267 195.774 23.267H195.702C195.702 23.267 195.631 23.267 195.559 23.267C195.559 23.267 195.488 23.267 195.416 23.267H195.345H195.273C195.202 23.267 195.202 23.267 195.202 23.267C195.202 23.267 195.202 23.267 195.13 23.267C195.13 23.267 195.059 23.267 194.987 23.267C194.916 23.267 194.916 23.267 194.844 23.267C194.844 23.267 194.844 23.3385 194.844 23.267C194.844 23.267 194.773 23.267 194.701 23.267H194.629H194.558C194.558 23.267 194.558 23.267 194.486 23.267C194.415 23.267 194.486 23.3385 194.701 23.267C194.773 23.267 194.844 23.267 194.844 23.267C194.844 23.267 194.916 23.267 194.987 23.267C195.059 23.267 195.13 23.267 195.13 23.267C195.13 23.267 195.13 23.267 195.202 23.267C195.273 23.267 195.273 23.267 195.202 23.267C195.273 23.267 195.273 23.267 195.273 23.267C195.273 23.267 195.273 23.267 195.345 23.267C195.416 23.267 195.416 23.267 195.488 23.267C195.559 23.267 195.488 23.267 195.488 23.3385V23.4101C195.488 23.4101 195.559 23.4101 195.559 23.3385C195.559 23.3385 195.559 23.267 195.631 23.267C195.702 23.267 195.702 23.267 195.702 23.3385C195.845 23.4816 195.846 23.4816 195.917 23.5531C195.989 23.4816 195.989 23.4816 195.917 23.5531ZM192.984 29.2756C192.984 29.204 192.913 29.2756 192.913 29.3471C192.913 29.4186 192.913 29.4902 192.913 29.4186C192.913 29.3471 192.984 29.3471 192.984 29.2756C192.984 29.3471 192.984 29.3471 192.984 29.2756ZM193.27 27.1297C193.27 27.2012 193.27 27.2012 193.27 27.1297C193.342 27.2012 193.342 27.1297 193.27 27.1297ZM193.342 26.8435C193.27 26.9151 193.27 26.9151 193.342 26.8435C193.342 26.9151 193.342 26.9151 193.342 26.8435ZM194.629 23.6962C194.558 23.6962 194.558 23.6962 194.629 23.6962V23.6962ZM194.773 23.6962C194.701 23.6962 194.773 23.6962 194.773 23.6962V23.6962ZM194.844 23.6247C194.844 23.6962 194.844 23.6962 194.844 23.6247C194.844 23.6962 194.844 23.6962 194.844 23.6247ZM195.13 23.6247C195.059 23.6247 194.916 23.6247 194.916 23.6247C194.916 23.6962 194.916 23.6962 195.13 23.6247C195.202 23.6247 195.202 23.6247 195.13 23.6247ZM195.273 23.0524C195.273 23.1239 195.345 23.1239 195.273 23.0524C195.273 23.0524 195.416 23.0524 195.488 23.0524C195.631 23.0524 195.702 23.0524 195.774 23.0524C195.845 23.0524 195.917 23.0524 195.917 22.9809C195.917 22.9809 195.845 22.9809 195.416 22.9809C195.273 22.9809 195.273 23.0524 195.273 23.0524ZM195.345 23.4816C195.345 23.4101 195.345 23.4101 195.345 23.4816C195.345 23.4101 195.345 23.4101 195.345 23.4816ZM195.774 23.4101H195.702C195.631 23.4101 195.631 23.4816 195.774 23.4101C195.774 23.4101 195.702 23.4816 195.774 23.4101ZM195.845 23.6247C195.845 23.6962 195.774 23.6962 195.845 23.6247C195.774 23.6247 195.702 23.6247 195.702 23.6247H195.845C195.845 23.6247 195.774 23.6247 195.845 23.6247ZM195.989 23.3385C195.917 23.3385 195.845 23.3385 195.845 23.3385C195.845 23.3385 196.132 23.267 196.132 23.3385C196.132 23.3385 196.06 23.3385 195.989 23.3385ZM196.418 23.4816C196.418 23.4816 196.418 23.4816 196.275 23.4816C196.203 23.4816 196.132 23.4816 196.132 23.4816C196.132 23.4816 196.132 23.4816 196.203 23.4816C196.275 23.4816 196.275 23.4816 196.275 23.4101C196.275 23.4101 196.275 23.3385 196.346 23.3385C196.418 23.3385 196.418 23.3385 196.418 23.4101C196.418 23.4816 196.418 23.4101 196.418 23.4816ZM196.203 22.9809C196.275 22.9809 196.275 23.0524 196.203 22.9809C196.203 23.0524 196.203 23.0524 196.203 22.9809C196.132 23.0524 196.06 23.0524 196.06 23.0524C196.06 22.9809 196.132 22.9809 196.203 22.9809ZM196.632 23.4816C196.561 23.4816 196.561 23.4816 196.632 23.4816C196.561 23.4101 196.561 23.4101 196.632 23.4816Z" fill="white"/>
<path d="M203.571 22.8378C203.499 23.4816 203.428 24.4115 203.142 26.0567C202.999 26.7005 202.999 26.9151 202.999 26.9866C202.999 27.0581 202.999 27.0581 202.999 27.0581C202.927 27.0581 202.927 27.2012 202.927 27.3442V27.4873V27.5588C202.927 27.5588 202.927 27.6304 202.927 27.7019C202.927 27.7734 202.855 27.9165 202.855 27.988C202.855 28.2026 202.784 28.4887 202.712 28.4172C202.712 28.4172 202.712 28.2741 202.712 28.0596C202.712 27.988 202.712 27.988 202.712 27.988C202.712 27.988 202.641 28.0596 202.641 28.1311V28.2026V28.2741C202.641 28.2741 202.641 28.2741 202.641 28.3457L202.569 28.4172C202.569 28.4172 202.569 28.4172 202.569 28.4887C202.569 28.5603 202.569 28.6318 202.569 28.7033C202.498 28.7033 202.498 28.8464 202.569 28.9179C202.569 28.9179 202.569 28.9179 202.569 28.9895C202.569 28.9895 202.569 29.061 202.498 29.1325C202.498 29.1325 202.426 29.204 202.498 29.204C202.498 29.204 202.498 29.204 202.498 29.2756C202.498 29.3471 202.569 29.2756 202.569 29.1325C202.569 29.061 202.569 28.9895 202.569 28.9895C202.569 28.9895 202.569 28.9179 202.569 28.8464C202.569 28.7749 202.569 28.7033 202.569 28.7033V28.6318C202.569 28.6318 202.569 28.5603 202.569 28.4887C202.569 28.4887 202.569 28.4887 202.569 28.6318C202.569 28.7033 202.569 28.9179 202.498 28.9895C202.426 29.2756 202.426 29.3471 202.426 29.5617C202.426 29.6332 202.426 29.8478 202.355 29.9194C202.355 29.9909 202.355 30.1339 202.355 30.1339L202.283 30.4916C202.212 30.4916 202.212 30.4201 202.283 30.4201C202.283 30.3485 202.355 30.1339 202.355 29.7763C202.355 29.6332 202.355 29.4902 202.355 29.4902C202.355 29.4902 202.283 29.7763 202.283 29.8478C202.283 29.8478 202.283 29.8478 202.283 29.9909C202.283 30.0624 202.283 30.1339 202.283 30.1339C202.283 30.1339 202.283 30.1339 202.283 30.2055V30.277C202.283 30.277 202.283 30.3485 202.283 30.4201C202.283 30.4916 202.283 30.4916 202.283 30.4916C202.283 30.4916 202.283 30.5631 202.212 30.6347C202.212 30.7777 202.212 30.9208 202.14 30.9208C202.14 30.9208 202.14 30.9208 202.069 30.9208C202.069 30.9208 201.997 30.9208 202.069 30.7777C202.069 30.6347 202.069 30.5631 202.069 30.5631V30.6347V30.5631C202.069 30.4916 202.069 30.4916 202.14 30.4916C202.212 30.4916 202.212 30.4916 202.212 30.4201C202.212 30.3485 202.14 30.277 202.14 30.3485C202.14 30.3485 202.14 30.3485 202.069 30.3485H201.997C201.997 30.3485 201.997 30.3485 201.997 30.277C201.997 30.277 201.997 30.2055 201.997 30.1339V30.0624C201.997 30.0624 201.997 30.0624 201.997 29.9909C201.997 29.9909 201.997 29.9909 201.997 29.9194C201.997 29.9194 201.997 29.8478 202.069 29.8478C202.069 29.8478 202.069 29.7763 202.069 29.7048C201.997 29.6332 201.997 29.6332 202.069 29.6332C202.14 29.7048 202.14 29.6332 202.069 29.5617C202.069 29.4902 202.069 29.4902 202.069 29.4902H202.14V29.4186C202.14 29.4186 202.14 29.4186 202.14 29.3471C202.14 29.2756 202.14 29.204 202.14 29.204C202.14 29.1325 202.14 29.1325 202.212 29.1325H202.283C202.212 29.1325 202.14 29.1325 202.212 28.9895V28.9179C202.212 28.9179 202.212 28.9179 202.212 28.8464V28.7749V28.7033V28.5603C202.212 28.4887 202.212 28.4887 202.212 28.4887C202.212 28.4887 202.212 28.4887 202.212 28.3457C202.283 28.2026 202.212 28.1311 202.212 28.1311C202.212 28.1311 202.14 28.2026 202.14 28.2741C202.14 28.4172 202.14 28.4172 202.14 28.4172C202.14 28.3457 202.14 28.3457 202.069 28.4172C202.069 28.4887 202.069 28.4887 202.069 28.5603C202.069 28.5603 202.069 28.6318 202.069 28.7033C202.069 28.7749 202.069 28.8464 202.069 28.8464C202.069 28.8464 202.069 28.8464 202.069 28.9179C202.069 28.9894 202.069 28.9895 202.069 29.061C202.069 29.061 202.069 29.061 202.069 29.1325V29.204C202.069 29.204 202.069 29.204 202.069 29.2756C202.069 29.3471 202.069 29.3471 202.069 29.2756C202.069 29.2756 202.069 29.3471 201.997 29.3471C201.926 29.3471 201.926 29.3471 201.997 29.3471C202.069 29.3471 201.997 29.3471 201.997 29.3471L201.926 29.4186C201.926 29.4186 201.926 29.4902 201.926 29.5617V29.6332C201.926 29.6332 201.926 29.6332 201.926 29.7048C201.926 29.7048 201.926 29.7763 201.926 29.7048H201.997C201.997 29.7763 201.997 29.7763 201.997 29.7048C201.926 29.7048 201.926 29.7048 201.926 29.7763C201.926 29.8478 201.926 29.9193 201.926 29.9909C201.926 30.1339 201.854 30.3485 201.854 30.3485C201.854 30.3485 201.854 30.3485 201.783 30.3485C201.711 30.3485 201.639 30.4201 201.639 30.4916C201.639 30.4916 201.639 30.5631 201.568 30.8493V30.9208V30.9923C201.568 30.9923 201.568 31.0638 201.568 30.9923C201.568 30.9923 201.496 31.0638 201.496 31.2784C201.496 31.35 201.496 31.4215 201.425 31.4215V31.35C201.425 31.35 201.425 31.35 201.425 31.2784L201.353 31.493V31.5646C201.353 31.5646 201.353 31.6361 201.353 31.7791C201.353 31.8507 201.353 31.9222 201.282 31.9222C201.282 31.9937 201.282 32.2799 201.282 32.2799C201.282 32.2799 201.282 32.2799 201.282 32.3514C201.282 32.3514 201.282 32.4229 201.282 32.3514C201.282 32.3514 201.282 32.4229 201.282 32.3514C201.282 32.3514 201.282 32.3514 201.282 32.4229C201.282 32.4945 201.282 32.566 201.282 32.566C201.21 32.566 201.282 32.6375 201.353 32.7091C201.425 32.7091 201.425 32.7091 201.353 32.7091C201.282 32.7091 201.282 32.7091 201.282 32.7091C201.282 32.7091 201.282 32.7806 201.21 32.7806C201.139 32.7806 201.139 32.7806 201.067 32.7806C200.996 32.7806 200.996 32.7806 200.924 32.7806C200.853 32.7806 200.853 32.7806 200.853 32.7806C200.853 32.7806 200.853 32.7806 200.853 32.7091C200.853 32.7091 200.853 32.6375 200.853 32.4229C200.853 32.2799 200.853 32.0653 200.924 31.9222C200.924 31.7792 200.924 31.6361 200.924 31.6361C200.924 31.6361 200.924 31.6361 200.924 31.5646C200.853 31.5646 200.853 31.493 200.924 31.493H200.996C200.996 31.493 200.996 31.493 200.924 31.493C200.924 31.493 200.924 31.493 200.924 31.4215V31.35C200.924 31.35 200.996 31.35 200.996 31.2784C200.996 31.2784 200.996 31.2069 200.924 31.2069C200.924 31.1354 200.924 31.0638 200.924 30.8493C200.924 30.7062 200.924 30.7062 200.996 30.7777C200.996 30.8493 200.996 30.8493 200.996 30.7777V30.7062C200.996 30.7062 200.996 30.4916 200.996 30.4201C200.996 30.4201 200.996 30.4201 200.996 30.3485C200.996 30.3485 200.996 30.2055 200.996 29.9909C201.067 29.3471 201.067 29.204 201.139 28.9179C201.139 28.7033 201.21 28.0596 201.282 27.845V27.7734H200.996C200.853 27.7734 200.638 27.7734 200.567 27.7734C200.495 27.7734 200.209 27.7734 200.066 27.845C199.851 27.845 199.565 27.9165 199.422 27.9165C199.35 27.9165 199.136 27.9165 199.064 27.9165C198.921 27.9165 198.921 27.9165 198.85 28.3457C198.778 28.6318 198.707 29.1325 198.635 29.1325C198.564 29.1325 198.564 29.061 198.564 29.061C198.564 29.061 198.635 28.7033 198.564 28.7033C198.564 28.7033 198.564 28.7033 198.564 28.7749V28.8464C198.564 28.8464 198.564 28.9179 198.564 28.9895C198.635 28.9895 198.635 28.9895 198.564 28.9895C198.564 28.9895 198.492 29.1325 198.492 29.2756V29.3471V29.4186C198.492 29.4186 198.492 29.4186 198.421 29.6332C198.421 29.7048 198.421 29.7763 198.349 29.8478C198.349 29.9194 198.349 29.9193 198.349 29.9909C198.349 29.9909 198.349 30.0624 198.349 30.1339C198.278 30.2055 198.206 30.2055 198.206 30.1339C198.206 30.1339 198.206 30.1339 198.206 30.2055C198.206 30.277 198.206 30.277 198.134 30.277C198.063 30.277 198.063 30.277 198.134 30.277C198.134 30.277 198.206 30.2055 198.206 30.0624C198.206 29.9909 198.206 29.8478 198.206 29.7763C198.206 29.7048 198.206 29.7763 198.206 29.7763C198.206 29.7763 198.206 29.7763 198.206 29.7048V29.6332C198.206 29.6332 198.206 29.5617 198.206 29.4902C198.206 29.4186 198.206 29.3471 198.206 29.3471C198.206 29.3471 198.206 28.9894 198.206 28.9179C198.206 28.9179 198.206 28.9179 198.134 28.9179C198.134 28.9894 198.134 28.9894 198.134 28.9179H198.063C198.063 28.9179 198.063 28.9179 197.991 28.9179C197.991 28.9894 197.991 28.9895 197.991 28.9895H198.063C198.063 28.9895 198.063 28.9895 197.991 28.9895C197.92 28.9895 197.92 29.061 197.92 29.204V29.2756C197.92 29.2756 197.848 29.4902 197.848 29.9194V29.9909C197.848 30.0624 197.848 30.277 197.777 30.277C197.848 30.277 197.848 30.277 197.777 30.3485H197.705V30.4201H197.634C197.634 30.4201 197.562 30.4201 197.562 30.4916C197.562 30.5631 197.562 30.6347 197.562 30.6347C197.491 30.7062 197.491 30.9923 197.562 30.9923C197.562 30.9923 197.562 31.0638 197.491 31.0638C197.419 31.0638 197.419 31.0638 197.419 31.0638C197.419 31.0638 197.419 31.0638 197.348 31.0638H197.276C197.276 30.9923 197.276 30.9923 197.276 31.0638C197.276 31.0638 197.205 31.1354 197.061 31.1354C196.918 31.1354 196.847 31.1354 196.847 31.0638C196.847 31.0638 196.847 30.9923 196.775 31.0638C196.775 31.0638 196.775 30.9923 196.847 30.9923C196.847 30.9923 196.847 30.9208 196.918 30.9208C196.918 30.9208 196.99 30.9208 196.918 30.9208C196.918 30.9208 196.918 30.9208 196.918 30.8493C196.918 30.7777 196.918 30.7777 196.847 30.8493C196.847 30.8493 196.775 30.8493 196.847 30.8493C196.847 30.8493 196.847 30.7777 196.847 30.7062C196.847 30.277 196.918 30.2055 196.918 30.2055C196.918 30.2055 196.918 30.1339 196.918 30.0624C196.918 29.9909 196.918 29.8478 196.99 29.7048C196.99 29.5617 196.99 29.4186 196.99 29.4186C196.99 29.3471 196.99 29.2756 196.99 29.1325C196.99 29.061 196.99 28.9179 196.99 28.8464C196.99 28.7749 196.99 28.6318 197.061 28.4887C197.061 28.3457 197.062 28.2026 197.133 28.1311C197.133 28.1311 197.133 28.0596 197.061 28.0596C196.99 28.0596 196.918 27.988 196.99 27.988C196.99 27.988 196.918 27.988 196.918 27.845C196.918 27.7734 196.918 27.7734 196.918 27.7734C196.918 27.7734 196.918 27.7734 196.918 27.7019C196.918 27.6304 196.918 27.5588 196.847 27.5588L196.775 27.4873C196.775 27.4873 196.704 27.4158 196.418 26.9866C196.346 26.8435 196.346 26.7005 196.346 26.7005C196.346 26.6289 196.418 26.6289 196.847 26.6289C197.062 26.6289 197.276 26.6289 197.348 26.5574H197.419L197.491 26.0567C197.634 25.1268 198.063 22.7663 198.063 22.7663C198.063 22.7663 198.206 22.7663 198.349 22.7663C198.564 22.7663 198.707 22.7663 198.707 22.7663C198.778 22.8378 198.85 22.8378 198.921 22.7663C198.921 22.7663 198.993 22.7663 199.064 22.7663L199.207 22.8378V22.7663C199.207 22.6947 199.207 22.6947 199.279 22.6947C199.35 22.6947 199.422 22.6947 199.494 22.6947C199.565 22.6947 199.637 22.6947 199.637 22.6947H199.708C199.78 22.8378 199.78 23.0524 199.422 25.556C199.35 25.9136 199.35 26.1998 199.35 26.1998C199.35 26.1998 199.494 26.1998 199.708 26.1998C200.066 26.1282 200.28 26.1282 200.853 26.1282C201.067 26.1282 201.282 26.1282 201.425 26.1282H201.639L201.711 25.7706C201.997 24.34 202.355 22.4086 202.426 22.2656C202.426 22.051 202.498 21.9794 202.569 21.9794C202.569 21.9794 203.07 21.9794 203.142 21.9794C203.213 21.9794 203.213 21.9794 203.285 21.9794C203.285 21.9794 203.356 21.9794 203.428 22.051L203.499 22.1225V22.051C203.499 21.9794 203.499 21.9794 203.642 21.9794C203.714 21.9794 203.785 21.9794 203.785 21.9794C203.857 21.9794 203.928 21.9794 204 22.1225C203.642 22.5517 203.642 22.6232 203.571 22.8378ZM196.918 31.35C196.918 31.2784 196.918 31.2784 196.918 31.35C196.847 31.4215 196.847 31.493 196.918 31.35C196.918 31.35 196.847 31.4215 196.918 31.35ZM196.99 30.7777C196.99 30.9208 196.99 30.9208 196.99 30.7777C196.99 30.8493 196.99 30.7777 196.99 30.7777ZM197.133 31.2069C197.133 31.2069 197.133 31.1354 197.133 31.2069C197.205 31.2069 197.205 31.2069 197.133 31.2069ZM197.133 30.5631C197.062 30.6347 197.062 30.7062 197.133 30.7062C197.133 30.7062 197.205 30.7062 197.133 30.5631C197.205 30.5631 197.205 30.5631 197.133 30.5631ZM197.205 30.9923C197.205 30.9923 197.276 31.0638 197.205 30.9923C197.276 31.0638 197.205 31.0638 197.205 30.9923C197.133 30.9923 197.133 30.9923 197.205 30.9923C197.205 30.9208 197.205 30.9208 197.205 30.9923ZM197.205 31.35C197.205 31.4215 197.205 31.4215 197.205 31.35C197.133 31.493 197.133 31.493 197.205 31.35ZM197.276 30.4916C197.276 30.4916 197.276 30.4201 197.276 30.4916C197.205 30.4916 197.205 30.4916 197.276 30.4916ZM197.205 30.2055C197.205 30.277 197.205 30.3485 197.205 30.3485C197.205 30.3485 197.205 30.3485 197.276 30.3485C197.276 30.2055 197.276 30.1339 197.205 30.2055ZM197.348 30.0624C197.348 30.0624 197.276 29.9909 197.348 30.0624C197.276 30.0624 197.276 30.0624 197.276 30.0624C197.276 30.0624 197.276 30.0624 197.348 30.0624ZM197.348 29.6332C197.276 29.6332 197.276 29.6332 197.348 29.6332C197.276 29.7048 197.348 29.7048 197.348 29.6332C197.419 29.6332 197.419 29.6332 197.348 29.6332ZM197.348 29.9194C197.348 29.9909 197.348 29.9909 197.348 29.9194C197.348 29.9909 197.348 29.9909 197.348 29.9194ZM197.562 31.2069C197.562 31.1354 197.562 31.1354 197.562 31.1354C197.562 31.1354 197.634 31.1354 197.562 31.2069C197.634 31.2069 197.634 31.1354 197.562 31.2069ZM197.92 30.6347V30.7062C197.92 30.7062 197.92 30.7062 197.848 30.7062V30.9208C197.848 30.9208 197.848 30.9923 197.848 31.0638C197.848 31.1354 197.848 31.2069 197.848 31.2069C197.848 31.2069 197.777 31.2069 197.848 31.2069C197.92 31.2069 197.848 31.2069 197.848 31.2069L197.777 31.2784C197.777 31.35 197.777 31.35 197.705 31.2784C197.705 31.2784 197.705 31.2069 197.705 31.1354C197.705 31.0638 197.705 30.9923 197.705 30.9923C197.705 30.9923 197.705 30.9923 197.777 30.9208C197.848 30.8493 197.848 30.8493 197.848 30.6347C197.848 30.3485 197.848 30.3485 197.92 30.3485C197.92 30.5631 197.92 30.6347 197.92 30.6347ZM197.634 30.7777C197.634 30.7062 197.634 30.6347 197.634 30.6347C197.705 30.5631 197.705 30.7777 197.634 30.7777C197.634 30.7777 197.634 30.8493 197.634 30.7777ZM197.634 29.5617C197.634 29.5617 197.634 29.4902 197.634 29.5617C197.634 29.5617 197.634 29.6332 197.634 29.5617C197.634 29.6332 197.634 29.7048 197.634 29.5617ZM197.848 29.1325C197.848 29.1325 197.92 29.061 197.848 29.1325C197.848 29.061 197.848 28.9895 197.848 29.061V28.9895V28.9179C197.848 28.9179 197.848 28.9179 197.848 28.8464C197.777 28.7749 197.777 28.7749 197.777 28.8464C197.705 28.8464 197.777 29.1325 197.848 29.1325ZM197.848 30.277C197.848 30.3485 197.92 30.3485 197.848 30.277V30.277ZM197.92 29.8478C197.92 29.8478 197.92 29.9193 197.92 29.9909C197.92 30.0624 197.92 30.1339 197.92 30.1339C197.92 30.2055 197.991 30.1339 197.991 30.0624C197.92 30.0624 197.92 29.9909 197.92 29.8478ZM197.92 28.4172C197.92 28.3457 197.92 28.3457 197.92 28.4172C197.92 28.4887 197.848 28.5603 197.848 28.5603C197.848 28.6318 197.848 28.6318 197.848 28.5603C197.92 28.5603 197.92 28.4887 197.92 28.4172ZM198.134 30.4916L198.063 30.9208C198.063 30.9208 198.063 30.8493 198.063 30.7777C198.063 30.7062 198.063 30.6347 198.063 30.6347C197.991 30.5631 198.134 30.4916 198.134 30.4916ZM198.134 28.8464C198.063 28.8464 198.063 28.8464 198.134 28.8464C198.134 28.9179 198.134 28.9179 198.134 28.8464C198.134 28.9179 198.134 28.9179 198.134 28.8464ZM198.349 29.5617C198.349 29.6332 198.349 29.7048 198.349 29.8478C198.349 29.9909 198.349 30.0624 198.278 30.1339C198.278 30.2055 198.278 30.277 198.278 30.277V30.3485C198.278 30.3485 198.278 30.277 198.278 30.1339C198.278 30.0624 198.278 29.8478 198.278 29.7763C198.278 29.7048 198.278 29.6332 198.349 29.6332C198.278 29.5617 198.278 29.5617 198.349 29.5617C198.278 29.4902 198.278 29.4186 198.349 29.4186C198.349 29.4902 198.349 29.4902 198.349 29.5617ZM198.278 26.4143C198.278 26.4143 198.278 26.3428 198.278 26.4143C198.278 26.3428 198.278 26.3428 198.278 26.4143C198.278 26.4859 198.278 26.4859 198.278 26.4143ZM198.349 28.9179C198.278 28.9179 198.278 28.9179 198.349 28.9179V28.9179ZM198.349 28.7749C198.349 28.7749 198.349 28.7033 198.349 28.7749C198.278 28.7033 198.278 28.7749 198.349 28.7749C198.349 28.8464 198.349 28.8464 198.349 28.7749ZM198.349 28.6318C198.349 28.6318 198.349 28.5603 198.349 28.6318C198.349 28.5603 198.349 28.5603 198.349 28.6318C198.278 28.6318 198.278 28.6318 198.349 28.6318ZM198.349 28.6318C198.278 28.6318 198.278 28.7033 198.349 28.6318C198.349 28.7033 198.349 28.7033 198.349 28.6318ZM198.349 25.8421C198.349 25.9136 198.349 25.9136 198.349 25.8421C198.349 25.9136 198.349 25.8421 198.349 25.8421C198.349 25.8421 198.349 25.7706 198.349 25.8421ZM199.994 27.845C199.994 27.9165 199.994 27.9165 199.994 27.845C199.994 27.9165 199.994 27.9165 199.994 27.845C200.066 27.845 200.066 27.9165 199.994 27.845ZM200.352 27.4158C200.28 27.4158 200.28 27.4158 200.352 27.4158C200.352 27.4873 200.352 27.4873 200.352 27.4158C200.28 27.4158 200.209 27.4158 200.137 27.4158C200.066 27.4158 200.066 27.4158 200.137 27.4158C200.209 27.5588 200.352 27.4873 200.352 27.4158C200.352 27.4158 200.352 27.4873 200.352 27.4158ZM200.28 32.8521C200.28 32.9236 200.28 32.8521 200.28 32.8521C200.28 32.8521 200.28 32.7806 200.28 32.8521ZM200.352 32.4229C200.352 32.4945 200.28 32.4945 200.352 32.4229C200.352 32.3514 200.352 32.3514 200.352 32.4229C200.352 32.4229 200.352 32.3514 200.352 32.4229ZM200.352 32.0653C200.423 32.0653 200.423 32.1368 200.352 32.0653C200.352 32.1368 200.352 32.1368 200.352 32.0653ZM200.423 27.3442C200.423 27.3442 200.495 27.4158 200.495 27.3442C200.567 27.3442 200.495 27.3442 200.423 27.3442C200.423 27.3442 200.423 27.2727 200.423 27.3442ZM200.924 27.4158C200.924 27.3442 200.924 27.2727 200.924 27.2727C200.924 27.2727 200.853 27.2727 200.924 27.2727C200.924 27.3442 200.924 27.3442 200.853 27.2727C200.853 27.2012 200.71 27.2727 200.71 27.2727C200.71 27.2727 200.71 27.2727 200.638 27.2727C200.638 27.2727 200.638 27.2727 200.567 27.2727C200.567 27.2727 200.638 27.3442 200.781 27.2727C200.853 27.2727 200.853 27.2727 200.853 27.3442C200.853 27.3442 200.853 27.3442 200.924 27.3442C200.853 27.4158 200.924 27.4158 200.924 27.4158ZM200.638 27.845C200.567 27.9165 200.567 27.9165 200.638 27.845C200.567 27.845 200.567 27.845 200.567 27.845C200.495 27.9165 200.495 27.9165 200.638 27.845C200.567 27.9165 200.567 27.9165 200.638 27.845ZM200.567 31.2069C200.567 31.1354 200.567 31.1354 200.567 31.2069C200.495 31.1354 200.495 31.2069 200.567 31.2069C200.638 31.2784 200.567 31.35 200.567 31.2069ZM200.638 30.7062C200.638 30.6347 200.638 30.6347 200.638 30.7062C200.638 30.6347 200.638 30.6347 200.638 30.7062ZM200.71 32.6375C200.71 32.6375 200.71 32.566 200.71 32.6375C200.638 32.566 200.638 32.566 200.71 32.6375C200.638 32.6375 200.638 32.6375 200.71 32.6375ZM200.71 32.7091C200.638 32.7091 200.638 32.7091 200.71 32.7091C200.638 32.7806 200.71 32.7806 200.71 32.7091ZM200.71 32.4229C200.638 32.4945 200.71 32.4945 200.71 32.4945C200.781 32.4945 200.781 32.4945 200.71 32.4229ZM200.71 31.9937C200.71 32.0653 200.71 32.0653 200.71 31.9937C200.781 32.0653 200.781 32.0653 200.71 31.9937C200.781 31.9937 200.781 31.9937 200.71 31.9937ZM200.781 32.9236C200.781 32.9236 200.853 32.9952 200.781 32.9236C200.853 32.9952 200.853 32.9236 200.781 32.9236C200.71 32.8521 200.781 32.8521 200.781 32.9236ZM200.924 28.2741C200.924 28.2741 200.924 28.2026 200.924 28.2741C200.853 28.2741 200.924 28.2741 200.924 28.2741ZM200.996 32.6375C200.996 32.6375 200.996 32.7806 200.924 32.7806C200.924 32.6375 200.996 32.6375 200.996 32.6375ZM201.067 32.2083C201.067 32.2799 201.067 32.3514 201.067 32.2083V32.1368V32.2083ZM201.139 31.9222C201.139 31.9937 201.067 31.9937 201.067 31.9222C200.996 31.9937 201.067 31.9222 201.139 31.9222C201.21 31.8507 201.21 31.8507 201.139 31.9222ZM201.067 31.7076V31.6361C201.139 31.7076 201.139 31.7792 201.067 31.7076C200.996 31.7792 201.067 31.8507 201.067 31.7076ZM201.139 30.9923C201.139 30.9923 201.139 31.0638 201.139 31.1354C201.139 31.2069 201.139 31.2069 201.139 30.9923C201.21 30.9208 201.21 30.9208 201.139 30.9923ZM201.21 30.6347C201.21 30.6347 201.139 30.6347 201.21 30.6347C201.139 30.7062 201.139 30.7062 201.21 30.6347C201.21 30.7062 201.21 30.7062 201.21 30.6347ZM201.496 31.2069C201.496 31.2069 201.425 31.2069 201.496 31.2069C201.425 31.2069 201.425 31.2069 201.425 31.2069C201.425 31.2069 201.425 31.1354 201.496 31.2069C201.496 31.1354 201.496 31.1354 201.496 31.2069ZM201.425 30.1339C201.425 30.2055 201.425 30.2055 201.425 30.2055C201.353 30.2055 201.353 30.3485 201.425 30.3485C201.425 30.3485 201.425 30.3485 201.425 30.277C201.496 30.277 201.496 30.2055 201.425 30.1339C201.496 29.9909 201.496 29.9909 201.425 30.1339ZM201.568 30.5631C201.568 30.5631 201.496 30.5631 201.568 30.5631C201.496 30.6347 201.496 30.7062 201.496 30.7062V30.7777C201.496 30.8493 201.496 30.8493 201.496 30.8493C201.496 30.8493 201.496 30.8493 201.496 30.7777V30.7062C201.496 30.7062 201.496 30.7062 201.496 30.6347C201.496 30.5631 201.496 30.5631 201.568 30.5631C201.496 30.5631 201.496 30.5631 201.568 30.5631C201.496 30.5631 201.496 30.5631 201.425 30.5631C201.568 30.4201 201.639 30.4916 201.568 30.5631ZM201.568 29.7763C201.568 29.7048 201.496 29.7048 201.496 29.7048C201.425 29.7763 201.496 29.8478 201.568 29.7763ZM201.711 28.6318C201.711 28.5603 201.711 28.5603 201.711 28.6318C201.639 28.5603 201.639 28.6318 201.711 28.7033C201.711 28.6318 201.711 28.7033 201.711 28.6318ZM201.783 27.988C201.783 27.9165 201.783 27.9165 201.783 27.988C201.783 27.988 201.783 28.0596 201.783 27.988C201.711 28.0596 201.711 28.1311 201.711 28.1311C201.711 28.2026 201.711 28.2026 201.711 28.1311C201.783 28.2026 201.783 28.0596 201.783 27.988ZM201.711 28.4172C201.711 28.4887 201.711 28.4887 201.711 28.4172C201.711 28.4887 201.711 28.4887 201.711 28.4172C201.783 28.4172 201.783 28.4172 201.711 28.4172ZM201.783 31.2784C201.783 31.35 201.783 31.2784 201.783 31.2784V31.2784ZM201.997 31.35C201.997 31.4215 201.997 31.4215 201.997 31.35C201.926 31.4215 201.926 31.4215 201.997 31.35C201.926 31.35 201.926 31.35 201.997 31.35C201.997 31.35 201.926 31.35 201.997 31.35ZM201.997 30.277C201.997 30.2055 201.997 30.2055 201.997 30.277C201.997 30.277 201.997 30.3485 201.997 30.277L201.926 30.3485C201.926 30.3485 201.926 30.4201 201.997 30.4201C201.997 30.4201 202.069 30.4201 201.997 30.277ZM201.997 31.2069C201.997 31.2069 201.997 31.2784 201.997 31.2069C201.926 31.2784 201.926 31.2784 201.926 31.2784C201.926 31.2784 201.997 31.2069 201.997 31.2069ZM202.069 29.9909C202.069 30.0624 202.069 30.0624 202.069 29.9909C202.069 30.0624 202.069 30.0624 202.069 29.9909ZM202.14 29.9194C202.14 29.9194 202.14 29.8478 202.14 29.9194C202.069 29.9194 202.069 29.9194 202.069 29.9194C202.069 29.9194 202.069 29.9194 202.14 29.9194ZM202.14 29.7763C202.14 29.7048 202.14 29.7048 202.14 29.7763C202.069 29.7763 202.069 29.8478 202.14 29.7763C202.14 29.7763 202.14 29.8478 202.14 29.7763ZM202.14 29.5617C202.14 29.4902 202.14 29.5617 202.14 29.5617C202.14 29.6332 202.14 29.6332 202.14 29.5617C202.14 29.5617 202.14 29.6332 202.14 29.5617ZM202.283 30.8493C202.283 30.9923 202.283 30.9923 202.283 30.8493C202.212 30.8493 202.212 30.7777 202.212 30.7777C202.283 30.7062 202.283 30.7062 202.283 30.8493ZM202.355 28.4172C202.355 28.3457 202.283 28.4172 202.355 28.4172C202.355 28.4887 202.355 28.5603 202.355 28.5603C202.355 28.5603 202.355 28.5603 202.355 28.4172C202.355 28.4887 202.355 28.4887 202.355 28.4172C202.355 28.4172 202.355 28.4887 202.355 28.4172ZM202.283 28.6318C202.283 28.7033 202.283 28.7033 202.283 28.6318C202.283 28.7033 202.283 28.6318 202.283 28.6318ZM202.498 26.1282C202.498 26.0567 202.426 26.0567 202.498 26.1282C202.426 26.1998 202.498 26.1998 202.498 26.1282ZM202.569 27.9165C202.641 27.9165 202.641 27.9165 202.641 27.9165C202.712 27.845 202.641 27.845 202.569 27.9165ZM202.999 27.4873C203.07 27.5588 202.999 27.5588 202.999 27.4873C202.927 27.5588 202.927 27.5588 202.927 27.5588C202.927 27.4873 202.999 27.4873 202.999 27.4873ZM203.142 27.4873C203.07 27.3442 203.07 27.3442 203.142 27.4158C203.213 27.4873 203.213 27.4873 203.142 27.4873ZM203.213 27.4158C203.213 27.4158 203.285 27.4158 203.213 27.4158C203.285 27.4158 203.213 27.4158 203.213 27.4158ZM203.285 27.4873C203.213 27.4873 203.213 27.4873 203.285 27.4873C203.285 27.4158 203.285 27.4873 203.285 27.4873Z" fill="white"/>
</g>
<defs>
<filter id="filter0_d" x="0" y="0" width="208" height="77.2814" filterUnits="userSpaceOnUse" color-interpolation-filters="sRGB">
<feFlood flood-opacity="0" result="BackgroundImageFix"/>
<feColorMatrix in="SourceAlpha" type="matrix" values="0 0 0 0 0 0 0 0 0 0 0 0 0 0 0 0 0 0 127 0"/>
<feOffset dy="4"/>
<feGaussianBlur stdDeviation="2"/>
<feColorMatrix type="matrix" values="0 0 0 0 0 0 0 0 0 0 0 0 0 0 0 0 0 0 0.25 0"/>
<feBlend mode="normal" in2="BackgroundImageFix" result="effect1_dropShadow"/>
<feBlend mode="normal" in="SourceGraphic" in2="effect1_dropShadow" result="shape"/>
</filter>
</defs>
</svg>
