<svg width="281" height="98" viewBox="0 0 281 98" fill="none" xmlns="http://www.w3.org/2000/svg">
<path d="M8.2 44.5L8.50001 45.2C8.1 44.6 7.7 44 7.4 43.4C9.4 47.5 11.6 51.4 14 55.2L14.9 56.7L15.4 57.4L15.6 57.8C15.8 58.1 16.1 58.3 16.3 58.6C16.6 59 17 59.3 17.4 59.5C17.5 59.7 17.7 59.9 17.9 60C18 60 18.1 59.9 18.1 59.6C18.1 59.3 18.1 59 18 58.7C18 58.5 17.9 58.2 17.8 58C17.8 57.9 17.8 57.8 17.7 57.6C17.7 57.2 17.7 56.9 17.7 56.5V56.4L17.6 56.2L17.4 55.8L15.8 52.6L17 55.2C16.4 54 15.7 52.7 14.9 51.4L15 51.9C12.8 47.5 9.40001 41.8 7.10001 39.2C4.80001 36.6 5 38.1 7.2 42.5L8.2 44.5Z" fill="url(#paint0_linear)"/>
<path d="M11.3 53.2C10 50.6 8.70005 48.1 7.50005 45.6L7.30005 45L7.00005 45.4C8.60005 47.5 11 51.1 13.1 54.5L13.9 55.7C14.1 56.1 14.4 56.4 14.8 56.7C15.2 56.9 14.7 55.7 13.8 54.1L12.7 52.2C10.4 47.6 6.20005 40.5 4.00005 38.4C3.50005 37.9 3.60005 38.5 3.50005 38.8C3.10005 38.8 3.90005 40.6 5.20005 42.9C6.50005 45.1 7.90005 46.9 8.20005 46.9L8.80005 48.1L8.20005 47.3C8.80005 47.8 10.1 49.8 11.1 51.3L12.5 53.5L12.4 51.9L11.6 50.8C11.6 50.9 11.6 51 11.7 51.1C10.2 48.9 8.80005 46.9 7.20005 44.5L5.10005 41.5C4.50005 40.7 4.40005 40.9 4.80005 41.9L5.50005 43.4L5.20005 42.7C6.90005 45.9 8.90005 49.4 10.6 52.6C10.8 53.1 11.1 53.5 11.5 53.9C11.6 54 11.6 53.7 11.3 53.2Z" fill="url(#paint1_linear)"/>
<path d="M4.60002 42C4.30002 41.4 4.00002 40.8 3.60002 40.2L3.40002 39.9L3.90002 41C4.20002 41.8 4.50002 42.1 4.60002 42Z" fill="url(#paint2_linear)"/>
<path d="M3.40001 39.9L3.20001 39.5L3.30001 39.8L3.40001 39.9Z" fill="url(#paint3_linear)"/>
<path d="M75.1 28.3C79.2 23.9 83.7 19.7 88.6 16.1C93.5 12.3 98.8 9.20001 104.4 6.60001C104.6 6.50001 104.9 6.40001 105.1 6.20001C105.1 6.20001 104.8 6.20001 104.5 6.40001C98.8 8.90001 93.5 12.1 88.6 15.8C83.7 19.5 79.3 23.6 75.1 28C74.9 28.2 74.8 28.4 74.6 28.6C74.6 28.7 74.8 28.5 75.1 28.3Z" fill="url(#paint4_linear)"/>
<path d="M157 8.60002C156.7 8.50002 156.7 8.60002 157 8.60002C157.3 8.80002 157.6 8.90002 157.9 9.00002C158.1 9.00002 158.1 9.00002 157.9 8.90002C157.6 8.80002 157.3 8.70002 157 8.60002Z" fill="url(#paint5_linear)"/>
<path d="M153.6 11.1C152.2 10.7 150.8 10.4 149.3 10.2C149.1 10.2 148.8 10.1 148.6 10C148.7 10.1 148.4 10.1 147.8 10C142.3 9.00001 136.6 8.60001 131 8.90001C125.3 9.20001 119.7 10.4 114.3 12.4C114.2 12.5 114.1 12.6 113.9 12.7C112.7 13.3 111.5 13.9 110.2 14.3L109.1 14.8C104.5 16.8 100.1 19.2 96 22.1C95.2 22.8 94.3 23.5 93.3 24.3C90 27.2 86.9 30.4 84 33.7C84.2 33.5 84.4 33.4 84.4 33.5C84.4 33.7 83.8 34.5 83 35.4L81.8 36.8C83 35.5 84.2 34.2 85.4 33C85.6 32.8 85.8 32.7 85.9 32.5C87.2 31.2 88.6 29.8 90.1 28.5C96.4 22.8 103.2 18.1 110.5 14.8C117.7 11.5 125.5 9.70001 133.5 9.40001C133.8 9.40001 134.1 9.40001 134.4 9.40001C134.5 9.40001 134.5 9.50001 134.2 9.50001C129.4 9.80001 124.7 10.7 120.2 12.2C115.4 13.8 110.9 15.8 106.5 18.3C100.8 21.6 95.6 25.6 91 30.2C86.2 34.9 81.9 40.1 78.1 45.6C77.2 46.8 76.4 48.1 75.5 49.3L74.9 50.2L74.3 51.1L73.7 52.1C72.9 53.3 72.1 54.6 71.4 55.9C70.7 57.2 69.9 58.6 69.2 60L67.1 64.4L62.8 73.4L62.4 72.9L62.2 72.7C62.1 72.6 62.1 72.5 62 72.4L61.2 71.2L59.5 68.8L56.1 63.9L49.2 53.9L47.5 51.4L46.8 50.4L46.3 49.8L44.4 47.1L43.4 45.7C43.1 45.3 42.6 44.6 42.7 44.8L42.6 44.5C42.5 44.4 42.3 44.3 42.2 44.2C42.2 44.5 42.1 44.7 42.1 44.8V44.9L41.8 45.5L41.2 46.9L38.8 52.5L33.7 64.5L24.1 87C23 89.7 21.8 92.4 20.7 94.9C17.7 89.7 15.1 84.9 13.1 81.2C11.2 77.5 10 74.8 9.90002 73.8C9.80002 73.1 10.2 73.2 11 74.1C12.2 75.5 13.3 76.9 14.3 78.5L12.7 75.8L10.2 71.4C9.10002 69.3 8.00002 67.4 7.10002 65.7C6.70002 64.9 6.30002 64.1 6.00002 63.4C5.90002 63.2 5.90002 63.1 5.80002 63L5.70002 62.7C5.60002 62.5 5.60002 62.3 5.50002 62.1L4.80002 60.1C4.00002 57.4 2.20002 53.1 1.70002 50.8L2.20002 51.1L2.00002 50.9C1.30002 49.3 0.900024 48.1 0.900024 47.6H1.30002C1.80002 47.7 2.60002 48.3 3.60002 49.3C3.70002 49.2 3.90002 49.3 4.20002 49.5C3.90002 48.3 3.90002 47.6 4.70002 48.2C4.40002 47.5 4.60002 47.6 5.10002 48.2C5.30002 48.4 5.50002 48.7 5.60002 49.1C5.50002 48.7 5.40002 48.6 5.20002 48.1L4.70002 47.1L3.00002 43.9C2.40002 42.6 2.10002 41.7 2.10002 41.7C1.80002 40 1.80002 40 2.20002 40.1C2.30002 40.1 2.30002 40.2 2.40002 40.3L1.60002 38.8C1.50002 38.5 1.40002 38.2 1.40002 38.2C1.70002 38.1 1.70002 38.1 1.60002 37.9C1.60002 37.8 1.60002 37.8 1.60002 37.8C2.10002 38.3 2.10002 38.3 2.10002 38.3C2.20002 38.4 2.40002 38.6 2.40002 38.6L3.20002 39.7L3.80002 41.4L4.10002 41.7V42.2V42L4.50002 42.8L4.10002 41.8C5.20002 43.7 5.20002 43.7 5.60002 44.4C6.00002 45.1 6.50002 45.8 6.50002 45.9C6.50002 45.8 6.50002 45.8 6.50002 45.8L8.70002 49.8C8.80002 50 8.80002 50.2 8.90002 50.3C9.10002 50.6 9.30002 50.9 9.50002 51.2L10 52.2L10.1 52.4L10.6 53.2L10.7 53.4L13.2 56.9L13.7 57.8L13.9 58.2L14 58.4C14 58.4 14 58.5 14.1 58.6C14.1 58.5 14.1 58.5 14 58.4L13.9 58.1C13.8 57.7 14 58 13.9 57.8C11.7 53.5 9.10002 48.8 6.50002 44.2C6.50002 43.6 6.10002 43 6.00002 42.4C6.10002 42.3 6.50002 42.8 7.00002 43.6C8.50002 45.8 10 48.1 11.5 50.5C12.3 51.7 13 52.9 13.8 54.2L14.9 56.1L15.9 57.8C16.9 59.6 17.8 61.4 18.6 63.3L18.7 63.2C19.1 62.4 19.6 61.5 20 60.6H19.9L20.3 60V59.9C20.2 60 20 60.1 19.9 60.2L19.7 60.5C19.3 61.2 19 61.9 18.5 62.6C17.9 61.2 17.4 60 16.9 59C16.7 58.6 16.6 58.1 16.4 57.7L16.3 57.4V57.3L16.2 57.2L15.9 56.7L14.8 54.5C14.4 53.8 14.2 53.2 14.3 53.2C14.7 53.6 15 54.1 15.3 54.6L16.6 56.8L16.7 57.1V57.2L16.8 57.4C16.9 57.6 17.1 57.9 17.2 58.1C17.5 58.7 17.8 59.2 18 59.9C18.4 59.4 18.9 59 19.4 58.7C19.5 58.5 19.6 58.2 19.8 58.1C19.8 58 19.9 57.9 20 57.8L20.1 57.7V57.6V57.5V57.4L20 57.5H19.9L19.8 57.6C19.8 57.5 19.9 57.5 19.9 57.4L20.3 56.7C20.6 56.2 20.8 55.7 21.2 55.1L20.7 55.5C22.3 52.1 23.8 48.6 25.3 45.1C26.1 43.4 26.9 41.6 27.6 40L29.3 36.2L31.1 32.2L31.6 31C33.4 26.2 35.4 21.2 37.7 15.6L36 20.7C37.1 18 38.1 15.4 39.2 12.7C40.2 14.1 41.2 15.6 42.2 17.1C45.9 22.5 49.7 28.4 52.9 33.5L54.1 35.4C54.5 36 54.9 36.7 55.1 37C55.5 37.7 55.9 38.4 56.2 39C56.9 40.3 57.4 41.4 57.8 42.3L58.5 43.4L58.9 44L59.7 45.2L60.5 46.4L60.9 47L61.1 47.3V47.4C61.1 47.4 61.1 47.4 61.1 47.3L61.2 47.1C61.6 46.3 62 45.6 62.4 44.9C62.6 44.5 62.8 44.2 63 43.8L63.3 43.3L63.5 43L63.9 42.4C66.5 38.4 69.3 34.6 72.4 31C72.7 30.5 73.1 30.2 73.5 29.9C73.6 29.9 73.3 30.4 72.9 30.9C69.9 34.6 67 38.5 64.4 42.5L64.2 43L64.1 43.1V43.2L64 43.3L63.6 44C63.4 44.4 63.1 44.9 62.9 45.3C62.4 46.2 61.9 47.1 61.5 48L61.4 48.2C61.4 48.2 61.4 48.4 61.3 48.3L61 48.1L60.6 47.5L61 48.2L61.2 48.6C61.2 48.7 61.2 48.6 61.3 48.6L61.4 48.5C62.2 47.1 63 45.7 64.1 44.2L65.3 42.5C65.8 41.7 66.4 40.9 67 40.1C68.2 38.5 69.4 36.9 70.6 35.3C71.3 34.4 72.1 33.4 72.8 32.5C73.6 31.6 74.3 30.7 75.1 29.8C79 25.4 83.3 21.4 87.9 17.7C92.6 13.9 97.6 10.7 103 7.90001C107.6 5.60001 112.4 3.80001 117.3 2.50001C122.3 1.20001 127.4 0.500008 132.5 0.300008C139.8 0.100008 147.1 1.00001 154.1 3.00001C161 4.90001 167.6 7.60001 173.9 11C175.6 11.9 177.1 12.9 177.1 13.2C177.2 13.5 175.9 13 174.2 12.1C167.6 8.70001 160.5 5.90001 153.2 4.00001C145.8 2.00001 138.2 1.20001 130.5 1.50001C122.8 1.90001 115.2 3.60001 108 6.50001C100.8 9.50001 94 13.5 88 18.3C85.4 20.4 82.9 22.6 80.5 24.9H80.6C80.6 24.9 80.6 25.3 80.2 25.7C82.9 23.1 85.7 20.6 88.7 18.4C92.8 15 97.2 12 101.9 9.50001C113.4 3.40001 126.6 1.10001 139.5 3.00001C148.5 3.90001 157.3 6.20001 165.6 9.90001C165.9 10 166.1 10.1 166.4 10.3C166.5 10.4 166.3 10.3 166 10.2C160.1 7.80001 154 5.90001 147.7 4.70001C148.7 5.10001 149.2 5.30001 149.1 5.50001C149 5.70001 148.2 5.70001 147 5.50001C148.4 5.80001 149.8 6.10001 151.2 6.50001C152.1 6.70001 152.7 7.00001 152.7 7.10001C152.7 7.20001 152 7.10001 151.1 6.80001C145.4 5.20001 139.6 4.40001 133.7 4.20001C126.7 4.20001 119.6 5.30001 112.9 7.50001C113.6 7.40001 114.3 7.30001 115 7.40001C116.1 7.10001 117.1 6.80001 118.1 6.60001C122.9 5.30001 127.9 4.60001 132.9 4.60001C138 4.60001 143 5.10001 148 6.10001C157.9 8.20001 167.4 12.4 176.1 17.6C176.5 17.8 176.7 18 176.7 18.1C176.7 18.1 176.4 18 176.1 17.8C170.8 14.6 165.3 11.9 159.6 9.70001C159.8 9.80001 159.8 9.90001 159.6 9.80001C159.3 9.70001 159 9.60001 158.7 9.50001C158.4 9.40001 158.5 9.30001 158.7 9.40001C153.3 7.40001 147.8 6.00001 142.1 5.30001C136.5 4.60001 130.8 4.60001 125.2 5.40001C130.4 4.80001 135.6 4.80001 140.8 5.40001C145.9 6.00001 151 7.20001 155.9 9.00001C157 9.30001 158.1 9.60001 159.1 10C159.4 10.1 159.6 10.2 159.9 10.4C159.9 10.4 159.7 10.4 159.4 10.3L158.5 10C160.3 10.7 161.7 11.5 161.5 11.6C161.3 11.8 159.7 11.3 157.8 10.6C152.8 8.80001 147.6 7.40001 142.2 6.60001C141.7 6.60001 141.1 6.50001 140.5 6.40001C139.9 6.30001 139.4 6.40001 138.8 6.30001C147.1 7.20001 155.1 9.60001 162.6 13C163 13.1 163.4 13.4 163.7 13.7C163.7 13.8 163.2 13.6 162.5 13.3C155.8 10.5 148.8 8.60001 141.6 7.70001C134.4 6.80001 127.1 7.10001 120 8.60001C115.4 9.90001 111 11.8 106.9 14.1L108.5 13.4C115.2 10.4 122.4 8.60001 129.7 8.00001C137 7.40001 144.4 8.10001 151.4 10C151.6 10 151.9 10.1 152.1 10.3C152.1 10.3 151.9 10.3 151.5 10.2C148 9.30001 144.5 8.60001 140.8 8.30001C137.2 8.00001 133.7 7.90001 130.1 8.20001C124.3 8.60001 118.7 9.80001 113.3 12C118.6 10.2 124.1 9.00001 129.7 8.70001C135.3 8.30001 141 8.70001 146.5 9.80001C146.9 9.90001 147.4 10 147.8 10.1C147.9 10.1 148 10.1 148.1 10.1C149.5 10.3 151.1 10.6 152.6 11.1C152.9 11.1 153.1 11.3 153.4 11.4C154.1 11.2 153.9 11.2 153.6 11.1ZM18.6 68.8L18.5 68.5L18.9 69.3L19.1 70C19.1 70 19.2 70 19.4 69.9L19.1 70.1L18.6 68.8ZM10.9 58.2L10.7 57.4L10.9 58.2ZM62.7 46.9C62.3 47.6 61.9 48.3 61.6 49L61.5 49.2V49.3L61.3 48.9L60.8 48.2L59.9 46.8C59.3 45.8 58.8 44.9 58.2 44L59.4 45.6L60.5 47.4L61.1 48.4L61.4 48.9L61.5 49L61.6 48.8C61.8 48.2 62.2 47.5 62.7 46.9ZM15.2 60.5C15.5 61.4 15.8 62.3 16.1 63.2C16.5 63.7 16.8 64.3 17.2 64.9C17.8 66 18.4 67.1 19.1 68.2L19.8 66.6C19.7 66.6 19.8 66.2 19.9 66L20.2 65.4L19.1 67.7L17.7 65C16.8 63.5 15.9 61.9 15.2 60.5ZM4.50002 43.4L4.40002 43.1L4.90002 43.5L4.50002 43.4ZM3.80002 42.7L4.00002 43.1C3.90002 43 3.80002 42.9 3.80002 42.7ZM5.70002 46.4C5.70002 46.2 5.60002 46 5.50002 45.9L5.70002 46.4ZM2.60002 51.6L4.20002 52.5L2.60002 51.4V51.6Z" fill="url(#paint6_linear)"/>
<path d="M123.2 45.2L118.6 29.3H122.4L125.2 40.2L128 29.3H131.4L126.9 45.2V53.1H123.2V45.2Z" fill="#E1426F"/>
<path d="M132.1 35C132.1 31.2 134 29 137.6 29C141.2 29 143.1 31.2 143.1 35V47.4C143.1 51.2 141.2 53.4 137.6 53.4C134 53.4 132.1 51.2 132.1 47.4V35ZM135.7 47.6C135.7 49.3 136.4 49.9 137.6 49.9C138.8 49.9 139.5 49.3 139.5 47.6V34.8C139.5 33.1 138.8 32.5 137.6 32.5C136.4 32.5 135.7 33.1 135.7 34.8V47.6Z" fill="#E1426F"/>
<path d="M148.9 29.3V47.6C148.9 49.3 149.6 49.9 150.8 49.9C152 49.9 152.7 49.3 152.7 47.6V29.3H156.1V47.4C156.1 51.2 154.3 53.4 150.7 53.4C147.1 53.4 145.3 51.2 145.3 47.4V29.3H148.9Z" fill="#E1426F"/>
<path d="M161.7 35.9V53.1H158.5V29.3H163L166.7 43.5V29.3H170V53.1H166.2L161.7 35.9Z" fill="#E1426F"/>
<path d="M178 39.8H183.1V47.4C183.1 51.2 181.3 53.4 177.7 53.4C174.1 53.4 172.3 51.2 172.3 47.4V35C172.3 31.2 174.1 29 177.7 29C181.3 29 183.1 31.2 183.1 35V37.3H179.7V34.7C179.7 33 179 32.4 177.8 32.4C176.6 32.4 175.9 33 175.9 34.7V47.6C175.9 49.3 176.6 49.9 177.8 49.9C179 49.9 179.7 49.3 179.7 47.6V43.2H178V39.8Z" fill="#E1426F"/>
<path d="M100.9 64.5L100 73.7H96.4L94.6 56.6H97.1L98.5 70L99.7 56.6H102.2L103.5 70.1L104.9 56.6H107.1L105.3 73.7H101.9L100.9 64.5Z" fill="#E1426F"/>
<path d="M111 63.8H114.6V66.2H111V71.2H115.5V73.7H108.5V56.6H115.5V59H111V63.8Z" fill="#E1426F"/>
<path d="M124.9 60.5V61.1C124.9 62.8 124.4 64 123.2 64.5C124.6 65 125.1 66.4 125.1 68.2V69.6C125.1 72.3 123.8 73.6 121.2 73.6H117.1V56.5H121C123.7 56.6 124.9 57.9 124.9 60.5ZM119.7 59V63.5H120.7C121.7 63.5 122.3 63 122.3 61.7V60.7C122.3 59.5 121.9 59 121 59H119.7ZM119.7 66V71.3H121.2C122.1 71.3 122.5 70.9 122.5 69.6V68.1C122.5 66.5 122 66 120.8 66H119.7Z" fill="#E1426F"/>
<path d="M132.2 68.7L133.9 56.6H137.6V73.7H135.1V61.4L133.3 73.7H130.9L129 61.6V73.7H126.7V56.6H130.3L132.2 68.7Z" fill="#E1426F"/>
<path d="M147.9 73.7H145.3L144.8 70.6H141.6L141.1 73.7H138.7L141.4 56.6H145.2L147.9 73.7ZM142 68.3H144.5L143.3 59.7L142 68.3Z" fill="#E1426F"/>
<path d="M152.6 56.4C155.1 56.4 156.4 58 156.4 60.7V61.2H153.9V60.5C153.9 59.3 153.4 58.8 152.6 58.8C151.8 58.8 151.3 59.3 151.3 60.5C151.3 64 156.4 64.7 156.4 69.6C156.4 72.3 155.1 73.9 152.5 73.9C149.9 73.9 148.6 72.3 148.6 69.6V68.5H151V69.7C151 70.9 151.5 71.3 152.3 71.3C153.1 71.3 153.6 70.8 153.6 69.7C153.6 66.2 148.5 65.5 148.5 60.6C148.7 58 150 56.4 152.6 56.4Z" fill="#E1426F"/>
<path d="M157.1 56.6H165.2V59H162.5V73.7H159.8V59H157.1V56.6Z" fill="#E1426F"/>
<path d="M168.9 63.8H172.4V66.2H168.9V71.2H173.3V73.7H166.3V56.6H173.3V59H168.9V63.8Z" fill="#E1426F"/>
<path d="M180.4 73.7C180.3 73.3 180.2 73 180.2 71.6V68.9C180.2 67.3 179.7 66.7 178.5 66.7H177.6V73.7H175V56.6H178.9C181.6 56.6 182.7 57.9 182.7 60.5V61.8C182.7 63.5 182.2 64.7 181 65.3C182.3 65.8 182.7 67.2 182.7 68.9V71.6C182.7 72.3 182.7 73 183 73.7H180.4ZM177.6 59V64.3H178.6C179.6 64.3 180.2 63.8 180.2 62.5V60.8C180.2 59.6 179.8 59.1 178.9 59.1L177.6 59Z" fill="#E1426F"/>
<path d="M151.3 88.2V90.5C151.3 93.2 150 94.8 147.4 94.8C144.8 94.8 143.5 93.2 143.5 90.5V81.6C143.5 78.9 144.8 77.3 147.4 77.3C150 77.3 151.3 78.9 151.3 81.6V83.2H148.8V81.4C148.8 80.2 148.3 79.7 147.5 79.7C146.7 79.7 146.2 80.2 146.2 81.4V90.6C146.2 91.8 146.7 92.2 147.5 92.2C148.3 92.2 148.8 91.7 148.8 90.6V88.2H151.3Z" fill="#E1426F"/>
<path d="M161.3 94.6H158.7L158.2 91.5H155L154.5 94.6H152.1L154.8 77.5H158.6L161.3 94.6ZM155.4 89.2H157.9L156.6 80.6L155.4 89.2Z" fill="#E1426F"/>
<path d="M168 89.6L169.7 77.5H173.3V94.6H170.9V82.3L169.1 94.6H166.7L164.7 82.5V94.6H162.5V77.5H166.1L168 89.6Z" fill="#E1426F"/>
<path d="M182.9 81.7V83.9C182.9 86.6 181.6 88.1 179 88.1H177.8V94.5H175.2V77.4H179C181.7 77.5 182.9 79 182.9 81.7ZM177.8 79.9V85.7H179C179.8 85.7 180.3 85.3 180.3 84.1V81.5C180.3 80.3 179.8 79.9 179 79.9H177.8Z" fill="#E1426F"/>
<path d="M210.8 54C210.1 58.3 209.2 64.1 208.8 66.8C208.3 69.5 207.8 72.8 207.5 74.3C207.3 75.8 207 77.6 206.8 78.4C206.7 79.1 206.4 80.4 206.3 81C206.2 81.7 205.9 83.6 205.8 85.1C205.1 90.5 204.6 92 203.6 93.4C203.3 93.8 203.2 93.8 203.1 93.5C202.9 93.2 202.8 93.2 202.7 93.4C202.4 93.9 201.9 93.8 201.9 93.4C201.9 92.9 201.4 92.9 201.2 93.4C200.9 93.8 200.9 93.8 200.8 93.4C200.7 93.1 200.5 93 200.2 93.2C200.1 93.3 198.6 93.4 197.1 93.4C194.4 93.5 194.4 93.5 194 92.9C193.7 92.4 193.5 91.8 193.5 91C193.5 88.7 194.3 81.7 195 77.4C196.4 70.1 197.4 63.6 198 59.6C198.4 57.4 198.9 53.7 199.5 51.4C199.9 49 200.2 47.1 200.2 47C200.2 47 200 47.2 199.7 47.4C198.9 48.2 198.1 48.5 198 48.2C197.9 48.1 197.6 48 197.5 48C197.2 48 196.8 47.8 196.6 47.5C196.4 47.3 196.3 47.2 196.3 47.3C196.3 47.4 196.1 47.4 196 47.3C195.8 47.1 195 46.8 194.3 46.8C192.7 46.4 189.8 45.4 189.6 45.1C189.2 44.6 189.7 44.1 192.8 40.8C196.7 36.7 202.6 29.9 202.9 29C203.6 27.2 203.5 27.3 204.8 27.4C205.5 27.5 206.5 27.8 207.2 28.1C207.8 28.5 208.4 28.6 208.5 28.5C208.7 28.3 209 28.5 209.4 29C210 29.5 210.1 29.5 210.2 29.1C210.3 28.7 210.5 28.7 211.4 28.9C212 29 212.3 29.2 212.3 29.4C212.3 29.8 212.3 29.8 212.6 29.5C212.8 29.1 212.9 29.1 213.1 29.5C214 30.6 213.3 38.1 210.8 54ZM202.1 81.3C202.1 81.1 202 81.2 202 81.6C202 82 202.1 82.1 202.1 82C202.2 81.8 202.2 81.4 202.1 81.3ZM205.4 63.5C205.4 63.3 205.2 63.2 205.1 63.3C204.9 63.4 204.9 63.6 205 63.7C205.2 64 205.4 64 205.4 63.5Z" fill="#E1426F"/>
<path d="M252.1 49.1C250.5 51.4 249.1 53.4 249 53.5C248.8 53.5 248.8 53.6 248.8 53.7C248.8 53.9 248.1 55.2 247.1 56.6C244.9 60 244.6 60.4 243.3 62.6C242.1 64.7 239.9 68.5 239.9 68.6C239.9 68.7 239.4 69.6 238.7 70.8C237.6 72.8 237.3 73.4 230.1 87.9C226.1 96.1 224.9 98 224.9 96.8C224.9 96.6 225.2 96 225.4 95.5C225.8 95 226 94.6 226 94.5C226 94.3 226.4 93.6 226.8 92.8C227.2 91.9 227.4 91.2 227.4 91.2C227.3 91.2 227.4 91 227.6 90.8C227.8 90.5 228.2 89.8 228.5 89.1C228.8 88.4 229 87.6 229.1 87.5C229.3 87.3 229.4 87.1 229.3 87.1C229.1 87.1 227.8 89 227.8 89.2C227.8 89.6 226.2 92.5 225.9 93C225.6 93.3 225.4 93.5 225.6 93.5C225.9 93.5 224.9 95.7 224.3 96C224 96.3 223.9 96.2 223.6 95.7C223.4 95.3 223.1 95.2 223 95.2C222.8 95.2 222.6 95 222.6 94.8C222.6 94.5 224.2 91.1 224.9 90C225 89.6 225.3 89.1 225.4 88.7C225.6 88.3 225.8 88.1 225.9 88.1C226 88.1 226.1 88 226.1 87.7C226 87.3 227.2 84.8 228.8 81.9C229 81.5 229.4 80.6 229.7 80C231 77.2 232.4 74.2 232.7 74.1C232.8 74.1 232.9 73.9 232.9 73.7C232.9 73.3 234.5 70.1 235.3 69.1C235.5 68.7 235.8 68.4 235.8 68.2C235.8 68.1 235.8 68 236 68C236.2 68 236.7 66.6 236.9 66C236.9 65.4 237.5 65 238.2 65C238.7 64.9 238.7 64.9 238.3 64.6C237.8 64.2 237.8 64.2 241.2 58.3C241.7 57.7 242.2 56.7 242.4 56.4L242.9 55.7L242.3 56.2C242 56.6 241.8 56.8 241.8 56.9C241.8 57 241.7 57.2 241.4 57.4C241.2 57.6 240.9 58.2 240.5 58.9C240.2 59.4 239.9 60 239.8 60C239.6 60 239.6 60.2 239.6 60.5C239.6 60.7 239.2 61.1 238.9 61.5C238.6 61.9 238.4 62.2 238.5 62.3C238.5 62.4 238.5 62.8 238.2 63C237.9 63.2 237.7 63.4 237.3 63.3C236.8 63.2 236.8 63.2 236.9 63.8C237.1 64.7 236.9 65.4 236.5 65.2C236.3 65.2 236.2 65.2 236.3 65.3C236.3 65.3 236.2 65.7 236.1 66C235.9 66.5 235.8 66.5 235.6 66.2C235.5 66 235.4 66 235.4 66.4C235.4 66.7 235.4 66.9 235.4 67C235.4 67.1 235.2 67.2 235 67.2C234.8 67.2 234.6 67.2 234.6 67.4C234.6 67.6 234.4 67.7 234.1 67.7C233.7 67.7 233.6 67.8 233.9 67.8C234.2 67.9 234.4 68.2 234.4 68.4C234.6 68.8 234.5 68.8 234.2 68.6C234 68.4 233.8 68.4 233.6 69.1C233.4 69.6 233.2 70 233.2 70.2C233.2 70.2 233 70.5 232.8 70.7C232.4 71.2 232.4 71.6 232.7 71.4C232.8 71.3 233 71.4 233 71.7C233 71.9 232.8 72 232.7 71.9C232.6 71.9 232.5 72 232.5 72.2C232.5 72.5 232.4 72.6 232.3 72.6C232.1 72.6 232 72.6 232 72.8C232 72.9 231.8 73 231.8 73C231.3 72.9 231.2 73 231.6 73.4C232 73.8 231.9 74.2 231.1 74.5C230.8 74.6 230.6 74.8 230.6 74.9C230.6 75.1 230.7 75.1 231 75C231.2 75 231.4 75 231.4 75.1C231.3 75.4 230.7 76.3 230.5 76.3C230 76.4 230 76.4 230.2 76.7C230.4 77 230.4 77.2 230.1 77.7C229.9 78.1 229.6 78.7 229.6 79.1C229.4 79.5 229.1 79.8 228.8 80C228.4 80.1 228.2 80.2 228.2 80.3C228.2 80.4 228.4 80.3 228.6 80.3C228.8 80.2 228.9 80.3 228.9 80.5C228.8 81 228.2 82.3 228 82.3C227.9 82.3 227.8 82.6 227.7 83C227.6 83.5 227.5 83.6 227.3 83.5C227 83.1 227 83.1 226.8 83.5C226.7 83.6 226.6 83.9 226.6 84C226.6 84.1 226.6 84.1 226.7 83.9C226.8 83.7 226.9 83.7 227 83.7C227.2 83.8 227.2 84.1 227 84.2C226.2 85.9 225.8 86.5 225.6 86.4C225.3 86.3 225.1 86.6 225 86.9C224.7 87.6 224.7 87.8 225 87.5C225.1 87.4 225.2 87.5 225.1 87.6C225.1 87.8 225 87.9 224.9 87.9C224.5 87.9 224.3 88.5 224.4 88.8C224.5 88.9 224.4 89.3 224.3 89.6C224.1 90.1 223.9 90.1 223.4 90.1C222.9 89.9 222.9 90 223 90.3C223.1 90.8 221.6 94 221.3 94C221.2 94 221.1 93.8 221.1 93.7C221.1 93.4 220.9 93.3 220.8 93.3C220.7 93.3 220.5 93.1 220.5 92.9C220.5 92.4 220.1 92.4 220 92.9C219.9 93.3 219.8 93.3 219.5 92.8C219.3 92.6 219.2 92.5 219.3 92.8C219.4 93.1 219.4 93.1 219.2 92.7C219 92.5 218.7 92.3 218.7 92.3C218.2 92.2 217 91.2 217 91.1C217 90.9 216.8 90.9 216.6 90.9C216.3 90.9 216.1 90.7 216.1 90.6C216.1 90.4 216.1 90.2 216.1 90.1C216.1 89.9 215.9 89.7 215.9 89.7C215.7 89.5 215.8 89.1 217.2 86.3C218.1 84.3 218.6 83.4 219.9 80C220.4 79 225 69.8 225.9 67.8C226.7 66.4 228.3 63.3 229.4 61.4C229.9 60.5 230.7 59.2 231 58.6C231.4 58 232.3 56.4 232.9 55.3C234.6 52.5 234.6 52.6 236.2 50C236.9 48.8 237.8 47.3 238.1 46.9C238.5 46.4 239.4 44.9 240.3 43.6C241.1 42.3 241.8 41.3 241.8 41.2C241.7 41.1 239.9 41.6 237.8 42.2C232.9 43.6 222.3 46.3 221.5 46.2C221.2 46.2 220.5 45.7 219.5 44.7C218.8 43.9 217.8 43.1 217.5 42.8C216.2 41.9 214 39.8 213.8 39.4C213.6 39.1 213.7 38.7 213.8 38.4C214.2 37.8 215.2 37.4 222.1 35.7C227 34.5 230.7 33.4 235.1 32C243.3 29.3 246.5 28.5 248.8 28.3L250.1 28.2L252.6 30.6C254 32 255.1 33.2 255.1 33.3C255.1 33.4 255.5 33.7 255.8 33.9C256.6 34.2 257.7 35.4 258.3 36.4C258.9 38.2 257.6 40.8 252.1 49.1ZM221.5 91.1C221.5 91 221.4 90.9 221.3 91C221.1 91.1 221.1 91.3 221.1 91.4C221.1 91.5 221.1 91.6 221.3 91.5C221.4 91.4 221.5 91.2 221.5 91.1ZM222.5 88.8C222.4 88.6 222.3 88.7 222.3 89.1C222.3 89.4 222.4 89.5 222.5 89.3C222.7 89.1 222.7 88.9 222.5 88.8ZM224.6 92.4C224.3 92.4 224.1 93 224.2 93.4C224.3 93.5 224.1 93.7 223.9 93.7C223.5 93.9 223.4 94.5 223.8 94.5C224 94.5 224.1 94.4 223.9 94.3C223.9 94.2 224 93.9 224.3 93.7C224.8 93 225 92.4 224.6 92.4ZM226 90.6C226 90.2 225.9 90.1 225.8 90.1C225.5 90.1 225.4 90.8 225.7 91.1C226 91.2 226 91.2 226 90.6ZM227.6 82.4C227.5 82.3 227.3 82.4 227.3 82.7C227.1 83 227.1 83.1 227.4 82.8C227.6 82.6 227.7 82.4 227.6 82.4ZM228.3 80.8C228.3 80.6 228.3 80.6 228.2 80.6C228.1 80.6 228 80.6 227.9 80.8C227.8 81 227.9 81.1 228 81.1C228.3 81.1 228.3 81 228.3 80.8ZM229.3 78.6C229.1 78.6 229 78.6 229.1 78.7C229.2 78.8 229.2 79 229 79.2C228.9 79.4 228.9 79.6 228.9 79.6C229 79.6 229.1 79.4 229.3 79.2C229.5 79 229.4 78.7 229.3 78.6ZM231.6 82.7C231.2 83 230.6 84.2 230.5 84.9C230.4 85.1 230.3 85.3 230.3 85.4C229.8 85.8 229.3 87 229.5 87C229.7 87 229.9 86.8 229.9 86.6C229.9 86.5 230 86.1 230.4 85.7C230.7 85.4 230.8 85.1 230.7 85.1C230.6 85.1 230.6 84.9 230.9 84.8C231 84.6 231.2 84.3 231.2 84.2C231.2 84.1 231.4 83.6 231.7 83.2C231.8 82.6 231.8 82.4 231.6 82.7ZM230.3 69.3C230.3 69.6 230.3 69.7 230.4 69.7C230.5 69.4 230.5 69.3 230.3 69.3C230.3 69 230.3 69 230.3 69.3ZM230.7 72.8C230.7 72.7 230.6 72.6 230.4 72.5C230.2 72.4 230.2 72.5 230.2 72.6C230.2 72.8 230.2 72.9 230.4 72.9C230.6 72.9 230.7 72.8 230.7 72.8ZM232.6 80.7C232.4 80.8 232.2 80.9 232.2 81.1C232.2 81.2 232 81.6 231.8 81.9C231.5 82.4 231.6 82.4 232 82C232.2 81.7 232.5 81.3 232.5 81.1C232.7 80.7 232.7 80.6 232.6 80.7ZM232.5 69.2C232.4 69.2 232.2 69.2 232 69.4C231.8 69.7 231.8 69.7 232.2 69.5C232.4 69.4 232.6 69.3 232.5 69.2ZM233 76.3C233 76.1 232.8 76 232.7 76C232.4 76 232.3 76.1 232.3 76.3C232.3 76.4 232.4 76.5 232.7 76.5C232.8 76.4 233 76.4 233 76.3ZM232.9 79.6C232.9 79.4 232.7 79.6 232.7 79.9C232.6 80.3 232.6 80.4 232.7 80.3C232.9 80.1 233 79.8 232.9 79.6ZM239.6 66.8C239.3 67 239.1 67.3 239 67.5C239 68.1 238.6 68.7 238.5 68.5C238.4 68.5 238.3 68.5 238.3 68.6C238.5 69 238 70 237.6 70.6C237.3 71 237.1 71.4 237.1 71.6C237.1 71.9 236.9 72.1 236.7 72.2C236.5 72.3 236.4 72.5 236.4 72.6C236.3 72.7 236 73.2 235.8 74C235.5 74.6 235.3 75.2 235.3 75.2C235.3 75.3 234.9 75.7 234.8 76.3C234.4 76.8 234.2 77.3 234.1 77.5C234.1 77.7 234 78.1 233.7 78.5C233.3 79.2 233.3 79.2 233.8 78.9C234.1 78.6 234.3 78.2 234.5 77.7C234.6 77.3 234.7 76.9 234.7 76.8C234.6 76.7 234.8 76.5 235.1 76.3C235.4 76.1 235.5 75.9 235.4 75.9C235.3 75.9 235.4 75.6 235.7 75.2C236.2 74.7 236.8 73.3 236.6 73.3C236.6 73.3 237 72.8 237.3 72.2C237.7 71.6 237.9 71.1 237.8 71.1C237.7 71.1 237.8 70.9 237.9 70.9C238 70.8 238.3 70.3 238.6 69.8C238.8 69.3 239.1 68.5 239.4 68.2C239.6 67.8 239.9 67.3 240 66.9C240.1 66.3 240 66.3 239.6 66.8ZM233.7 73.5C233.7 73.7 233.9 73.6 234.2 73.2C234.5 72.8 234.5 72.8 234.1 73.1C233.9 73.3 233.7 73.5 233.7 73.5ZM235.9 70.6C236.2 70.3 236.2 70.3 235.8 70.3C235.6 70.3 235.3 70.4 235.3 70.6C235.1 70.9 235.4 70.9 235.9 70.6ZM236.6 61.9C236.6 61.6 236.2 61.4 236.1 61.6C235.8 61.7 236 62.1 236.4 62.1C236.4 62.2 236.6 62.1 236.6 61.9ZM236.6 69.4C236.6 69.4 236.8 69.2 236.8 69C236.8 68.5 236.4 68.4 236.4 68.9C236.4 69.2 236.4 69.4 236.6 69.4ZM237 62.9C237 62.7 236.9 62.6 236.8 62.6C236.6 62.6 236.6 62.7 236.6 62.9C236.6 63 236.6 63.1 236.8 63.1C236.9 63.1 237 63 237 62.9ZM236.6 64.5C236.6 64.3 236.6 64.4 236.6 64.5C236.6 64.9 236.6 65 236.6 65C236.7 64.8 236.8 64.6 236.6 64.5ZM237.3 67.3C237.3 68.2 237.6 68 237.7 67C237.7 66.6 237.6 66.5 237.5 66.5C237.4 66.6 237.3 67 237.3 67.3ZM237.8 62.5C237.6 62.7 237.5 62.9 237.6 62.9C237.8 62.9 238 62.8 238.1 62.6C238.4 62.3 238.1 62.2 237.8 62.5ZM241.6 63.5C241.4 63.5 240.5 65.2 240.5 65.4C240.5 65.5 240.5 65.6 240.3 65.6C240.1 65.6 240.1 65.7 240.1 65.9C240.1 66.1 240.2 66.1 240.5 65.9C240.6 65.7 240.7 65.5 240.7 65.4C240.6 65.3 240.7 65 241 64.7C241.5 63.8 241.7 63.5 241.6 63.5ZM241.9 62.6C241.5 63.1 241.4 63.2 241.7 63.1C241.9 63 242.2 62.7 242.2 62.4C242.7 61.7 242.5 61.7 241.9 62.6ZM243.4 55.1C243.7 54.6 243.2 54.6 242.9 55.2C242.5 55.6 242.6 55.7 242.9 55.7C243.1 55.7 243.3 55.6 243.3 55.6C243.4 55.4 243.4 55.2 243.4 55.1ZM244.5 58.9C244.5 58.8 244.3 58.7 244.2 58.7C244.1 58.7 244 58.8 244.1 58.9C244.1 59 243.9 59.3 243.7 59.6L243.4 60.1L243.9 59.6C244.3 59.2 244.5 59 244.5 58.9ZM244.5 52.9C244.3 53 244.1 53.4 243.9 53.8C243.6 54.5 243.6 54.5 244 54.1C244.2 53.8 244.4 53.5 244.5 53.2C244.7 52.9 244.7 52.8 244.5 52.9ZM246.5 55.3C246.3 55.4 246.2 55.6 246.2 55.6C246.3 55.7 246.1 56.1 245.7 56.5L245.2 57.4L245.7 56.7C246.1 56.3 246.4 55.9 246.6 55.6C246.8 55.2 246.8 55.2 246.5 55.3ZM245.6 51C245.7 51.2 246.2 50.7 246.6 50.1C246.8 49.7 246.8 49.7 246.1 50.2C245.8 50.5 245.6 50.9 245.6 51ZM247.2 54.4C247.1 54.2 246.9 54.1 246.8 54.1C246.6 54.1 246.6 54.2 246.7 54.4C246.8 54.5 247 54.7 247.1 54.7C247.2 54.7 247.3 54.5 247.2 54.4ZM249.2 45.9C249 46 248.9 46.2 248.9 46.3C248.9 46.7 249.1 46.6 249.2 46.1C249.4 45.9 249.3 45.8 249.2 45.9ZM250.1 45.1C250.1 44.9 250 44.8 249.9 44.9C249.7 45 249.7 45.2 249.7 45.3C249.9 45.7 250.1 45.6 250.1 45.1Z" fill="#E1426F"/>
<path d="M269.2 33.2C269.2 33.2 269.1 33.2 269 33.2C268.7 33.2 268.4 33.2 268.4 33.3C268.3 33.3 268.4 33.4 268.7 33.4C268.8 33.4 269 33.4 269 33.4C269 33.4 268.9 33.4 268.8 33.5C268.6 33.5 267.2 33.7 267.1 33.7C267.1 33.7 267 34.2 266.9 34.8C266.8 35.4 266.7 36.4 266.6 37C266.5 37.6 266.4 38.3 266.4 38.6C266.4 38.9 266.2 40.1 266 41.2C265.9 42.3 265.7 43.4 265.6 43.6C265.6 43.8 265.5 44.3 265.4 44.7C265.3 45.6 265.2 46 265 46.1C265 46.2 264.8 46.3 264.8 46.2C264.7 46.3 264.6 46.3 264.6 46.2C264.6 46.2 264.6 46.2 264.5 46.2C264.5 46.2 264.4 46.2 264.3 46.2C264.1 46.2 263.2 46.2 263.2 46.1C263.1 45.9 263.1 45.6 263.1 45.2C263.2 44.6 263.5 42.4 263.9 40.3C264 39.7 264.1 39 264.1 39C264.1 38.5 264.8 34.7 264.9 34.2C264.9 34.1 264.9 34.1 264.8 34.1C264.6 34.1 262.9 34.4 262.1 34.6C261.6 34.7 261.2 34.7 261.1 34.7C261 34.7 261 34.7 261.1 34.6C261 34.6 261 34.6 261 34.6V34.5C260.9 34.5 260.9 34.5 260.9 34.4C260.9 34.3 260.9 34.2 260.8 34.2C260.7 34.1 260.4 33.4 260.4 33.3C260.4 33.2 260.6 33.1 260.9 33C261.4 32.9 263.7 32.5 264.5 32.4C264.6 32.4 265 32.3 265.4 32.3C265.8 32.3 266.3 32.2 266.4 32.2C266.5 32.2 266.8 32.2 267 32.1C267.4 32.1 268.4 32 269.1 31.9C269.5 31.9 269.6 31.9 269.6 31.9H269.7C269.8 31.9 269.9 32.1 269.9 32.2C269.9 32.2 269.9 32.3 269.9 32.5C269.9 32.8 269.9 32.8 269.9 32.7C269.8 32.7 269.4 32.7 269.4 32.7C269.4 32.7 269.4 32.8 269.2 32.8C269.1 32.8 269 32.8 269 32.8H268.9C268.9 32.8 268.8 32.8 268.7 32.8C268.7 32.8 268.6 32.8 268.5 32.8H268.4H268.3C268.2 32.8 268.2 32.8 268.2 32.8C268.2 32.8 268.2 32.8 268.1 32.8C268.1 32.8 268 32.8 267.9 32.8C267.8 32.8 267.8 32.8 267.7 32.8C267.7 32.8 267.7 32.9 267.7 32.8C267.7 32.8 267.6 32.8 267.5 32.8H267.4H267.3C267.3 32.8 267.3 32.8 267.2 32.8C267.1 32.8 267.2 32.9 267.5 32.8C267.6 32.8 267.7 32.8 267.7 32.8C267.7 32.8 267.8 32.8 267.9 32.8C268 32.8 268.1 32.8 268.1 32.8C268.1 32.8 268.1 32.8 268.2 32.8C268.3 32.8 268.3 32.8 268.2 32.8C268.3 32.8 268.3 32.8 268.3 32.8C268.3 32.8 268.3 32.8 268.4 32.8C268.5 32.8 268.5 32.8 268.6 32.8C268.7 32.8 268.6 32.8 268.6 32.9V33C268.6 33 268.7 33 268.7 32.9C268.7 32.9 268.7 32.8 268.8 32.8C268.9 32.8 268.9 32.8 268.9 32.9C269.1 33.1 269.1 33.1 269.2 33.2C269.3 33.1 269.3 33.1 269.2 33.2ZM265.1 41.2C265.1 41.1 265 41.2 265 41.3C265 41.4 265 41.5 265 41.4C265 41.3 265.1 41.3 265.1 41.2C265.1 41.3 265.1 41.3 265.1 41.2ZM265.5 38.2C265.5 38.3 265.5 38.3 265.5 38.2C265.6 38.3 265.6 38.2 265.5 38.2ZM265.6 37.8C265.5 37.9 265.5 37.9 265.6 37.8C265.6 37.9 265.6 37.9 265.6 37.8ZM267.4 33.4C267.3 33.4 267.3 33.4 267.4 33.4V33.4ZM267.6 33.4C267.5 33.4 267.6 33.4 267.6 33.4V33.4ZM267.7 33.3C267.7 33.4 267.7 33.4 267.7 33.3C267.7 33.4 267.7 33.4 267.7 33.3ZM268.1 33.3C268 33.3 267.8 33.3 267.8 33.3C267.8 33.4 267.8 33.4 268.1 33.3C268.2 33.3 268.2 33.3 268.1 33.3ZM268.3 32.5C268.3 32.6 268.4 32.6 268.3 32.5C268.3 32.5 268.5 32.5 268.6 32.5C268.8 32.5 268.9 32.5 269 32.5C269.1 32.5 269.2 32.5 269.2 32.4C269.2 32.4 269.1 32.4 268.5 32.4C268.3 32.4 268.3 32.5 268.3 32.5ZM268.4 33.1C268.4 33 268.4 33 268.4 33.1C268.4 33 268.4 33 268.4 33.1ZM269 33H268.9C268.8 33 268.8 33.1 269 33C268.9 33.1 269 33 269 33ZM269.1 33.3C269.1 33.4 269 33.4 269.1 33.3C269 33.3 268.9 33.3 268.9 33.3H269.1C269 33.3 269.1 33.3 269.1 33.3ZM269.3 32.9C269.2 32.9 269.1 32.9 269.1 32.9C269.1 32.9 269.5 32.8 269.5 32.9C269.5 32.9 269.4 32.9 269.3 32.9ZM269.9 33.1C269.9 33.1 269.9 33.1 269.7 33.1C269.6 33.1 269.5 33.1 269.5 33.1C269.5 33.1 269.5 33.1 269.6 33.1C269.7 33.1 269.7 33.1 269.7 33C269.7 33 269.7 32.9 269.8 32.9C269.9 32.9 269.9 32.9 269.9 33C269.9 33.1 269.9 33 269.9 33.1ZM269.6 32.4C269.7 32.4 269.7 32.5 269.6 32.4C269.6 32.5 269.6 32.5 269.6 32.4C269.5 32.5 269.4 32.5 269.4 32.5C269.4 32.4 269.5 32.4 269.6 32.4ZM270.2 33.1C270.1 33.1 270.1 33.1 270.2 33.1C270.1 33 270.1 33 270.2 33.1Z" fill="#E1426F"/>
<path d="M279.9 32.2C279.8 33.1 279.7 34.4 279.3 36.7C279.1 37.6 279.1 37.9 279.1 38C279.1 38.1 279.1 38.1 279.1 38.1C279 38.1 279 38.3 279 38.5V38.7V38.8C279 38.8 279 38.9 279 39C279 39.1 278.9 39.3 278.9 39.4C278.9 39.7 278.8 40.1 278.7 40C278.7 40 278.7 39.8 278.7 39.5C278.7 39.4 278.7 39.4 278.7 39.4C278.7 39.4 278.6 39.5 278.6 39.6V39.7V39.8C278.6 39.8 278.6 39.8 278.6 39.9L278.5 40C278.5 40 278.5 40 278.5 40.1C278.5 40.2 278.5 40.3 278.5 40.4C278.4 40.4 278.4 40.6 278.5 40.7C278.5 40.7 278.5 40.7 278.5 40.8C278.5 40.8 278.5 40.9 278.4 41C278.4 41 278.3 41.1 278.4 41.1C278.4 41.1 278.4 41.1 278.4 41.2C278.4 41.3 278.5 41.2 278.5 41C278.5 40.9 278.5 40.8 278.5 40.8C278.5 40.8 278.5 40.7 278.5 40.6C278.5 40.5 278.5 40.4 278.5 40.4V40.3C278.5 40.3 278.5 40.2 278.5 40.1C278.5 40.1 278.5 40.1 278.5 40.3C278.5 40.4 278.5 40.7 278.4 40.8C278.3 41.2 278.3 41.3 278.3 41.6C278.3 41.7 278.3 42 278.2 42.1C278.2 42.2 278.2 42.4 278.2 42.4L278.1 42.9C278 42.9 278 42.8 278.1 42.8C278.1 42.7 278.2 42.4 278.2 41.9C278.2 41.7 278.2 41.5 278.2 41.5C278.2 41.5 278.1 41.9 278.1 42C278.1 42 278.1 42 278.1 42.2C278.1 42.3 278.1 42.4 278.1 42.4C278.1 42.4 278.1 42.4 278.1 42.5V42.6C278.1 42.6 278.1 42.7 278.1 42.8C278.1 42.9 278.1 42.9 278.1 42.9C278.1 42.9 278.1 43 278 43.1C278 43.3 278 43.5 277.9 43.5C277.9 43.5 277.9 43.5 277.8 43.5C277.8 43.5 277.7 43.5 277.8 43.3C277.8 43.1 277.8 43 277.8 43V43.1V43C277.8 42.9 277.8 42.9 277.9 42.9C278 42.9 278 42.9 278 42.8C278 42.7 277.9 42.6 277.9 42.7C277.9 42.7 277.9 42.7 277.8 42.7H277.7C277.7 42.7 277.7 42.7 277.7 42.6C277.7 42.6 277.7 42.5 277.7 42.4V42.3C277.7 42.3 277.7 42.3 277.7 42.2C277.7 42.2 277.7 42.2 277.7 42.1C277.7 42.1 277.7 42 277.8 42C277.8 42 277.8 41.9 277.8 41.8C277.7 41.7 277.7 41.7 277.8 41.7C277.9 41.8 277.9 41.7 277.8 41.6C277.8 41.5 277.8 41.5 277.8 41.5H277.9V41.4C277.9 41.4 277.9 41.4 277.9 41.3C277.9 41.2 277.9 41.1 277.9 41.1C277.9 41 277.9 41 278 41H278.1C278 41 277.9 41 278 40.8V40.7C278 40.7 278 40.7 278 40.6V40.5V40.4V40.2C278 40.1 278 40.1 278 40.1C278 40.1 278 40.1 278 39.9C278.1 39.7 278 39.6 278 39.6C278 39.6 277.9 39.7 277.9 39.8C277.9 40 277.9 40 277.9 40C277.9 39.9 277.9 39.9 277.8 40C277.8 40.1 277.8 40.1 277.8 40.2C277.8 40.2 277.8 40.3 277.8 40.4C277.8 40.5 277.8 40.6 277.8 40.6C277.8 40.6 277.8 40.6 277.8 40.7C277.8 40.8 277.8 40.8 277.8 40.9C277.8 40.9 277.8 40.9 277.8 41V41.1C277.8 41.1 277.8 41.1 277.8 41.2C277.8 41.3 277.8 41.3 277.8 41.2C277.8 41.2 277.8 41.3 277.7 41.3C277.6 41.3 277.6 41.3 277.7 41.3C277.8 41.3 277.7 41.3 277.7 41.3L277.6 41.4C277.6 41.4 277.6 41.5 277.6 41.6V41.7C277.6 41.7 277.6 41.7 277.6 41.8C277.6 41.8 277.6 41.9 277.6 41.8H277.7C277.7 41.9 277.7 41.9 277.7 41.8C277.6 41.8 277.6 41.8 277.6 41.9C277.6 42 277.6 42.1 277.6 42.2C277.6 42.4 277.5 42.7 277.5 42.7C277.5 42.7 277.5 42.7 277.4 42.7C277.3 42.7 277.2 42.8 277.2 42.9C277.2 42.9 277.2 43 277.1 43.4V43.5V43.6C277.1 43.6 277.1 43.7 277.1 43.6C277.1 43.6 277 43.7 277 44C277 44.1 277 44.2 276.9 44.2V44.1C276.9 44.1 276.9 44.1 276.9 44L276.8 44.3V44.4C276.8 44.4 276.8 44.5 276.8 44.7C276.8 44.8 276.8 44.9 276.7 44.9C276.7 45 276.7 45.4 276.7 45.4C276.7 45.4 276.7 45.4 276.7 45.5C276.7 45.5 276.7 45.6 276.7 45.5C276.7 45.5 276.7 45.6 276.7 45.5C276.7 45.5 276.7 45.5 276.7 45.6C276.7 45.7 276.7 45.8 276.7 45.8C276.6 45.8 276.7 45.9 276.8 46C276.9 46 276.9 46 276.8 46C276.7 46 276.7 46 276.7 46C276.7 46 276.7 46.1 276.6 46.1C276.5 46.1 276.5 46.1 276.4 46.1C276.3 46.1 276.3 46.1 276.2 46.1C276.1 46.1 276.1 46.1 276.1 46.1C276.1 46.1 276.1 46.1 276.1 46C276.1 46 276.1 45.9 276.1 45.6C276.1 45.4 276.1 45.1 276.2 44.9C276.2 44.7 276.2 44.5 276.2 44.5C276.2 44.5 276.2 44.5 276.2 44.4C276.1 44.4 276.1 44.3 276.2 44.3H276.3C276.3 44.3 276.3 44.3 276.2 44.3C276.2 44.3 276.2 44.3 276.2 44.2V44.1C276.2 44.1 276.3 44.1 276.3 44C276.3 44 276.3 43.9 276.2 43.9C276.2 43.8 276.2 43.7 276.2 43.4C276.2 43.2 276.2 43.2 276.3 43.3C276.3 43.4 276.3 43.4 276.3 43.3V43.2C276.3 43.2 276.3 42.9 276.3 42.8C276.3 42.8 276.3 42.8 276.3 42.7C276.3 42.7 276.3 42.5 276.3 42.2C276.4 41.3 276.4 41.1 276.5 40.7C276.5 40.4 276.6 39.5 276.7 39.2V39.1H276.3C276.1 39.1 275.8 39.1 275.7 39.1C275.6 39.1 275.2 39.1 275 39.2C274.7 39.2 274.3 39.3 274.1 39.3C274 39.3 273.7 39.3 273.6 39.3C273.4 39.3 273.4 39.3 273.3 39.9C273.2 40.3 273.1 41 273 41C272.9 41 272.9 40.9 272.9 40.9C272.9 40.9 273 40.4 272.9 40.4C272.9 40.4 272.9 40.4 272.9 40.5V40.6C272.9 40.6 272.9 40.7 272.9 40.8C273 40.8 273 40.8 272.9 40.8C272.9 40.8 272.8 41 272.8 41.2V41.3V41.4C272.8 41.4 272.8 41.4 272.7 41.7C272.7 41.8 272.7 41.9 272.6 42C272.6 42.1 272.6 42.1 272.6 42.2C272.6 42.2 272.6 42.3 272.6 42.4C272.5 42.5 272.4 42.5 272.4 42.4C272.4 42.4 272.4 42.4 272.4 42.5C272.4 42.6 272.4 42.6 272.3 42.6C272.2 42.6 272.2 42.6 272.3 42.6C272.3 42.6 272.4 42.5 272.4 42.3C272.4 42.2 272.4 42 272.4 41.9C272.4 41.8 272.4 41.9 272.4 41.9C272.4 41.9 272.4 41.9 272.4 41.8V41.7C272.4 41.7 272.4 41.6 272.4 41.5C272.4 41.4 272.4 41.3 272.4 41.3C272.4 41.3 272.4 40.8 272.4 40.7C272.4 40.7 272.4 40.7 272.3 40.7C272.3 40.8 272.3 40.8 272.3 40.7H272.2C272.2 40.7 272.2 40.7 272.1 40.7C272.1 40.8 272.1 40.8 272.1 40.8H272.2C272.2 40.8 272.2 40.8 272.1 40.8C272 40.8 272 40.9 272 41.1V41.2C272 41.2 271.9 41.5 271.9 42.1V42.2C271.9 42.3 271.9 42.6 271.8 42.6C271.9 42.6 271.9 42.6 271.8 42.7H271.7V42.8H271.6C271.6 42.8 271.5 42.8 271.5 42.9C271.5 43 271.5 43.1 271.5 43.1C271.4 43.2 271.4 43.6 271.5 43.6C271.5 43.6 271.5 43.7 271.4 43.7C271.3 43.7 271.3 43.7 271.3 43.7C271.3 43.7 271.3 43.7 271.2 43.7H271.1C271.1 43.6 271.1 43.6 271.1 43.7C271.1 43.7 271 43.8 270.8 43.8C270.6 43.8 270.5 43.8 270.5 43.7C270.5 43.7 270.5 43.6 270.4 43.7C270.4 43.7 270.4 43.6 270.5 43.6C270.5 43.6 270.5 43.5 270.6 43.5C270.6 43.5 270.7 43.5 270.6 43.5C270.6 43.5 270.6 43.5 270.6 43.4C270.6 43.3 270.6 43.3 270.5 43.4C270.5 43.4 270.4 43.4 270.5 43.4C270.5 43.4 270.5 43.3 270.5 43.2C270.5 42.6 270.6 42.5 270.6 42.5C270.6 42.5 270.6 42.4 270.6 42.3C270.6 42.2 270.6 42 270.7 41.8C270.7 41.6 270.7 41.4 270.7 41.4C270.7 41.3 270.7 41.2 270.7 41C270.7 40.9 270.7 40.7 270.7 40.6C270.7 40.5 270.7 40.3 270.8 40.1C270.8 39.9 270.8 39.7 270.9 39.6C270.9 39.6 270.9 39.5 270.8 39.5C270.7 39.5 270.6 39.4 270.7 39.4C270.7 39.4 270.6 39.4 270.6 39.2C270.6 39.1 270.6 39.1 270.6 39.1C270.6 39.1 270.6 39.1 270.6 39C270.6 38.9 270.6 38.8 270.5 38.8L270.4 38.7C270.4 38.7 270.3 38.6 269.9 38C269.8 37.8 269.8 37.6 269.8 37.6C269.8 37.5 269.9 37.5 270.5 37.5C270.8 37.5 271.1 37.5 271.2 37.4H271.3L271.4 36.7C271.6 35.4 272.2 32.1 272.2 32.1C272.2 32.1 272.4 32.1 272.6 32.1C272.9 32.1 273.1 32.1 273.1 32.1C273.2 32.2 273.3 32.2 273.4 32.1C273.4 32.1 273.5 32.1 273.6 32.1L273.8 32.2V32.1C273.8 32 273.8 32 273.9 32C274 32 274.1 32 274.2 32C274.3 32 274.4 32 274.4 32H274.5C274.6 32.2 274.6 32.5 274.1 36C274 36.5 274 36.9 274 36.9C274 36.9 274.2 36.9 274.5 36.9C275 36.8 275.3 36.8 276.1 36.8C276.4 36.8 276.7 36.8 276.9 36.8H277.2L277.3 36.3C277.7 34.3 278.2 31.6 278.3 31.4C278.3 31.1 278.4 31 278.5 31C278.5 31 279.2 31 279.3 31C279.4 31 279.4 31 279.5 31C279.5 31 279.6 31 279.7 31.1L279.8 31.2V31.1C279.8 31 279.8 31 280 31C280.1 31 280.2 31 280.2 31C280.3 31 280.4 31 280.5 31.2C280 31.8 280 31.9 279.9 32.2ZM270.6 44.1C270.6 44 270.6 44 270.6 44.1C270.5 44.2 270.5 44.3 270.6 44.1C270.5 44.2 270.6 44.1 270.6 44.1ZM270.7 43.3C270.7 43.5 270.7 43.5 270.7 43.3C270.7 43.4 270.7 43.3 270.7 43.3ZM270.9 43.9C270.9 43.9 270.9 43.8 270.9 43.9C271 43.9 271 43.9 270.9 43.9ZM270.9 43C270.8 43.1 270.8 43.2 270.9 43.2C270.9 43.2 271 43.2 270.9 43C271 43 271 43 270.9 43ZM271 43.6C271 43.6 271.1 43.7 271 43.6C271.1 43.7 271 43.7 271 43.6C270.9 43.6 270.9 43.6 271 43.6C271 43.5 271 43.5 271 43.6ZM271 44.1C271 44.2 271 44.2 271 44.1C270.9 44.3 270.9 44.3 271 44.1ZM271.1 42.9C271.1 42.9 271.1 42.8 271.1 42.9C271 42.9 271 42.9 271.1 42.9ZM271 42.5C271 42.6 271 42.7 271 42.7C271 42.7 271 42.7 271.1 42.7C271.1 42.5 271.1 42.4 271 42.5ZM271.2 42.3C271.2 42.3 271.1 42.2 271.2 42.3C271.1 42.3 271.1 42.3 271.1 42.3C271.1 42.3 271.1 42.3 271.2 42.3ZM271.2 41.7C271.1 41.7 271.1 41.7 271.2 41.7C271.1 41.8 271.2 41.8 271.2 41.7C271.3 41.7 271.3 41.7 271.2 41.7ZM271.2 42.1C271.2 42.2 271.2 42.2 271.2 42.1C271.2 42.2 271.2 42.2 271.2 42.1ZM271.5 43.9C271.5 43.8 271.5 43.8 271.5 43.8C271.5 43.8 271.6 43.8 271.5 43.9C271.6 43.8 271.6 43.9 271.5 43.9ZM272 43.1V43.2C272 43.2 272 43.2 271.9 43.2V43.5C271.9 43.5 271.9 43.6 271.9 43.7C271.9 43.8 271.9 43.9 271.9 43.9C271.9 43.9 271.8 43.9 271.9 43.9C272 43.9 271.9 43.9 271.9 43.9L271.8 44C271.8 44.1 271.8 44.1 271.7 44C271.7 44 271.7 43.9 271.7 43.8C271.7 43.7 271.7 43.6 271.7 43.6C271.7 43.6 271.7 43.6 271.8 43.5C271.9 43.4 271.9 43.4 271.9 43.1C271.9 42.7 271.9 42.7 272 42.7C272 43 272 43.1 272 43.1ZM271.6 43.3C271.6 43.2 271.6 43.1 271.6 43.1C271.7 43 271.7 43.3 271.6 43.3C271.6 43.4 271.6 43.3 271.6 43.3ZM271.6 41.6C271.6 41.6 271.6 41.5 271.6 41.6C271.6 41.6 271.6 41.7 271.6 41.6C271.6 41.8 271.6 41.7 271.6 41.6ZM271.9 41C271.9 41 272 40.9 271.9 41C271.9 40.9 271.9 40.8 271.9 40.9V40.8V40.7C271.9 40.7 271.9 40.7 271.9 40.6C271.8 40.5 271.8 40.5 271.8 40.6C271.7 40.6 271.8 41 271.9 41ZM271.9 42.6C271.9 42.7 272 42.7 271.9 42.6V42.6ZM272 42C272 42 272 42.1 272 42.2C272 42.3 272 42.4 272 42.4C272 42.5 272.1 42.4 272.1 42.3C272 42.3 272 42.2 272 42ZM272 40C272 39.9 272 39.9 272 40C272 40.1 271.9 40.2 271.9 40.2C271.9 40.3 271.9 40.3 271.9 40.2C272 40.2 272 40.1 272 40ZM272.3 42.9L272.2 43.5C272.2 43.5 272.2 43.4 272.2 43.3C272.2 43.2 272.2 43.1 272.2 43.1C272.1 43 272.3 42.9 272.3 42.9ZM272.3 40.6C272.2 40.6 272.2 40.6 272.3 40.6C272.3 40.7 272.3 40.7 272.3 40.6C272.3 40.7 272.3 40.7 272.3 40.6ZM272.6 41.6C272.6 41.7 272.6 41.8 272.6 42C272.6 42.2 272.6 42.3 272.5 42.4C272.5 42.5 272.5 42.6 272.5 42.6V42.7C272.5 42.7 272.5 42.6 272.5 42.4C272.5 42.3 272.5 42 272.5 41.9C272.5 41.8 272.5 41.7 272.6 41.7C272.5 41.6 272.5 41.6 272.6 41.6C272.5 41.5 272.5 41.4 272.6 41.4C272.6 41.5 272.6 41.5 272.6 41.6ZM272.5 37.2C272.5 37.2 272.5 37.1 272.5 37.2C272.5 37.1 272.5 37.1 272.5 37.2C272.5 37.3 272.5 37.3 272.5 37.2ZM272.6 40.7C272.5 40.7 272.5 40.7 272.6 40.7V40.7ZM272.6 40.5C272.6 40.5 272.6 40.4 272.6 40.5C272.5 40.4 272.5 40.5 272.6 40.5C272.6 40.6 272.6 40.6 272.6 40.5ZM272.6 40.3C272.6 40.3 272.6 40.2 272.6 40.3C272.6 40.2 272.6 40.2 272.6 40.3C272.5 40.3 272.5 40.3 272.6 40.3ZM272.6 40.3C272.5 40.3 272.5 40.4 272.6 40.3C272.6 40.4 272.6 40.4 272.6 40.3ZM272.6 36.4C272.6 36.5 272.6 36.5 272.6 36.4C272.6 36.5 272.6 36.4 272.6 36.4C272.6 36.3 272.6 36.4 272.6 36.4ZM274.9 39.2C274.9 39.3 274.9 39.3 274.9 39.2C274.9 39.3 274.9 39.3 274.9 39.2C275 39.3 275 39.2 274.9 39.2ZM275.4 38.6C275.3 38.6 275.3 38.6 275.4 38.6C275.4 38.7 275.4 38.7 275.4 38.6C275.3 38.6 275.2 38.6 275.1 38.6C275 38.6 275 38.6 275.1 38.6C275.2 38.8 275.4 38.7 275.4 38.6C275.4 38.7 275.4 38.6 275.4 38.6ZM275.3 46.2C275.3 46.3 275.3 46.2 275.3 46.2C275.3 46.2 275.3 46.1 275.3 46.2ZM275.4 45.6C275.4 45.7 275.3 45.7 275.4 45.6C275.4 45.5 275.4 45.5 275.4 45.6C275.4 45.5 275.4 45.6 275.4 45.6ZM275.4 45.1C275.5 45.1 275.5 45.2 275.4 45.1C275.4 45.2 275.4 45.2 275.4 45.1ZM275.5 38.5C275.5 38.5 275.6 38.6 275.6 38.5C275.7 38.5 275.6 38.5 275.5 38.5C275.5 38.4 275.5 38.5 275.5 38.5ZM276.2 38.6C276.2 38.5 276.2 38.4 276.2 38.4C276.2 38.4 276.1 38.4 276.2 38.4C276.2 38.5 276.2 38.5 276.1 38.4C276.1 38.3 275.9 38.4 275.9 38.4C275.9 38.4 275.9 38.4 275.8 38.4C275.8 38.4 275.8 38.4 275.7 38.4C275.7 38.4 275.8 38.5 276 38.4C276.1 38.4 276.1 38.4 276.1 38.5C276.1 38.5 276.1 38.5 276.2 38.5C276.1 38.6 276.2 38.6 276.2 38.6ZM275.8 39.2C275.7 39.3 275.7 39.3 275.8 39.2C275.7 39.2 275.7 39.2 275.7 39.2C275.6 39.3 275.6 39.3 275.8 39.2C275.7 39.3 275.7 39.3 275.8 39.2ZM275.7 43.9C275.7 43.8 275.7 43.8 275.7 43.9C275.6 43.8 275.6 43.9 275.7 43.9C275.7 44.1 275.8 44 275.7 43.9ZM275.8 43.2C275.8 43.1 275.8 43.1 275.8 43.2C275.8 43.1 275.8 43.1 275.8 43.2ZM275.9 45.9C275.9 45.9 275.9 45.8 275.9 45.9C275.8 45.8 275.8 45.8 275.9 45.9C275.8 45.9 275.8 45.9 275.9 45.9ZM275.9 46C275.8 46 275.8 46 275.9 46C275.8 46.1 275.9 46.1 275.9 46ZM275.9 45.6C275.8 45.7 275.9 45.7 275.9 45.7C276 45.7 276 45.7 275.9 45.6ZM275.9 45C275.9 45.1 275.9 45.1 275.9 45C276 45.1 276 45.1 275.9 45C276 45 276 45 275.9 45ZM276 46.3C276 46.3 276.1 46.4 276 46.3C276.1 46.4 276.1 46.3 276 46.3C276 46.2 275.9 46.2 276 46.3ZM276.2 39.8C276.2 39.8 276.2 39.7 276.2 39.8C276.1 39.8 276.2 39.8 276.2 39.8ZM276.3 45.9C276.3 45.9 276.3 46.1 276.2 46.1C276.2 45.9 276.3 45.9 276.3 45.9ZM276.4 45.3C276.4 45.4 276.4 45.5 276.4 45.3V45.2V45.3ZM276.5 44.9C276.5 45 276.4 45 276.4 44.9C276.3 45 276.4 44.9 276.5 44.9C276.6 44.8 276.6 44.8 276.5 44.9ZM276.4 44.6V44.5C276.5 44.6 276.5 44.7 276.4 44.6C276.4 44.8 276.3 44.7 276.4 44.6ZM276.5 43.6C276.5 43.6 276.5 43.7 276.5 43.8C276.5 43.9 276.5 43.9 276.5 43.6C276.6 43.5 276.6 43.5 276.5 43.6ZM276.6 43.1C276.6 43.1 276.5 43.1 276.6 43.1C276.5 43.2 276.5 43.2 276.6 43.1C276.6 43.2 276.6 43.2 276.6 43.1ZM277 43.9C277 43.9 276.9 43.9 277 43.9C276.9 43.9 276.9 43.9 276.9 43.9C276.9 43.9 276.9 43.8 277 43.9C277 43.8 277 43.8 277 43.9ZM276.9 42.4C276.9 42.5 276.9 42.5 276.9 42.5C276.8 42.5 276.8 42.7 276.9 42.7C276.9 42.7 276.9 42.7 276.9 42.6C277 42.6 277 42.5 276.9 42.4C277 42.2 277 42.2 276.9 42.4ZM277.1 43C277.1 43 277 43 277.1 43C277 43.1 277 43.2 277 43.2V43.3C277 43.4 277 43.4 277 43.4C277 43.4 277 43.4 277 43.3V43.2C277 43.2 277 43.2 277 43.1C277 43 277 43 277.1 43C277 43 277 43 277.1 43C277 43 277 43 276.9 43C277.1 42.8 277.2 42.9 277.1 43ZM277.1 41.9C277.1 41.8 277 41.8 277 41.8C276.9 41.9 277 42 277.1 41.9ZM277.3 40.3C277.3 40.2 277.3 40.2 277.3 40.3C277.2 40.2 277.2 40.3 277.3 40.4C277.3 40.3 277.3 40.4 277.3 40.3ZM277.4 39.4C277.4 39.3 277.4 39.3 277.4 39.4C277.4 39.4 277.4 39.5 277.4 39.4C277.3 39.5 277.3 39.6 277.3 39.6C277.3 39.7 277.3 39.7 277.3 39.6C277.4 39.7 277.4 39.5 277.4 39.4ZM277.3 40C277.3 40.1 277.3 40.1 277.3 40C277.3 40.1 277.3 40.1 277.3 40C277.4 40 277.4 40 277.3 40ZM277.4 44C277.4 44.1 277.4 44 277.4 44V44ZM277.7 44.1C277.7 44.2 277.7 44.2 277.7 44.1C277.6 44.2 277.6 44.2 277.7 44.1C277.6 44.1 277.6 44.1 277.7 44.1C277.6 44.1 277.7 44.1 277.7 44.1ZM277.7 42.6C277.7 42.5 277.7 42.5 277.7 42.6C277.7 42.6 277.7 42.7 277.7 42.6L277.6 42.7C277.6 42.7 277.6 42.8 277.7 42.8C277.7 42.8 277.8 42.8 277.7 42.6ZM277.7 43.9C277.7 43.9 277.7 44 277.7 43.9C277.6 44 277.6 44 277.6 44L277.7 43.9ZM277.8 42.2C277.8 42.3 277.8 42.3 277.8 42.2C277.8 42.3 277.8 42.3 277.8 42.2ZM277.9 42.1C277.9 42.1 277.9 42 277.9 42.1C277.8 42.1 277.8 42.1 277.8 42.1C277.8 42.1 277.8 42.1 277.9 42.1ZM277.9 41.9C277.9 41.8 277.9 41.8 277.9 41.9C277.8 41.9 277.8 42 277.9 41.9C277.9 42 277.9 41.9 277.9 41.9ZM277.9 41.6C277.9 41.5 277.9 41.6 277.9 41.6C277.9 41.7 277.9 41.7 277.9 41.6C277.9 41.7 277.9 41.6 277.9 41.6ZM278.1 43.4C278.1 43.6 278.1 43.6 278.1 43.4C278 43.4 278 43.3 278 43.3C278.1 43.2 278.1 43.2 278.1 43.4ZM278.2 40C278.2 39.9 278.1 40 278.2 40C278.2 40.1 278.2 40.2 278.2 40.2C278.2 40.2 278.2 40.2 278.2 40C278.2 40.1 278.2 40.1 278.2 40C278.2 40.1 278.2 40 278.2 40ZM278.1 40.3C278.1 40.4 278.1 40.4 278.1 40.3C278.1 40.4 278.1 40.3 278.1 40.3ZM278.4 36.8C278.4 36.7 278.3 36.7 278.4 36.8C278.3 36.9 278.4 36.9 278.4 36.8ZM278.5 39.3C278.6 39.3 278.6 39.3 278.6 39.3C278.7 39.2 278.6 39.2 278.5 39.3ZM279.1 38.7C279.2 38.8 279.1 38.8 279.1 38.7C279 38.8 279 38.8 279 38.8C279 38.7 279.1 38.7 279.1 38.7ZM279.3 38.7C279.2 38.5 279.2 38.5 279.3 38.6C279.4 38.7 279.4 38.7 279.3 38.7ZM279.4 38.6C279.4 38.6 279.5 38.6 279.4 38.6C279.5 38.6 279.4 38.6 279.4 38.6ZM279.5 38.7C279.4 38.7 279.4 38.7 279.5 38.7C279.5 38.6 279.5 38.7 279.5 38.7Z" fill="#E1426F"/>
<defs>
<linearGradient id="paint0_linear" x1="9.31881" y1="51.676" x2="14.5257" y2="46.4691" gradientUnits="userSpaceOnUse">
<stop stop-color="#C73884"/>
<stop offset="0.5024" stop-color="#E13C6F"/>
<stop offset="1" stop-color="#9B308E"/>
</linearGradient>
<linearGradient id="paint1_linear" x1="7.23725" y1="49.5779" x2="11.2184" y2="45.5967" gradientUnits="userSpaceOnUse">
<stop stop-color="#C73884"/>
<stop offset="0.5024" stop-color="#E13C6F"/>
<stop offset="1" stop-color="#9B308E"/>
</linearGradient>
<linearGradient id="paint2_linear" x1="3.72872" y1="41.2278" x2="4.21362" y2="40.743" gradientUnits="userSpaceOnUse">
<stop stop-color="#C73884"/>
<stop offset="0.5024" stop-color="#E13C6F"/>
<stop offset="1" stop-color="#9B308E"/>
</linearGradient>
<linearGradient id="paint3_linear" x1="3.22981" y1="39.7592" x2="3.34421" y2="39.6448" gradientUnits="userSpaceOnUse">
<stop stop-color="#C73884"/>
<stop offset="0.5024" stop-color="#E13C6F"/>
<stop offset="1" stop-color="#9B308E"/>
</linearGradient>
<linearGradient id="paint4_linear" x1="76.5048" y1="30.5817" x2="102.979" y2="4.10721" gradientUnits="userSpaceOnUse">
<stop stop-color="#C73884"/>
<stop offset="0.5024" stop-color="#E13C6F"/>
<stop offset="1" stop-color="#9B308E"/>
</linearGradient>
<linearGradient id="paint5_linear" x1="157.232" y1="9.01202" x2="157.672" y2="8.57242" gradientUnits="userSpaceOnUse">
<stop stop-color="#C73884"/>
<stop offset="0.5024" stop-color="#E13C6F"/>
<stop offset="1" stop-color="#9B308E"/>
</linearGradient>
<linearGradient id="paint6_linear" x1="21.4051" y1="95.8679" x2="140.786" y2="-23.5134" gradientUnits="userSpaceOnUse">
<stop stop-color="#C73884"/>
<stop offset="0.5024" stop-color="#E13C6F"/>
<stop offset="1" stop-color="#9B308E"/>
</linearGradient>
</defs>
</svg>
